<svg width="1474" height="240" viewBox="0 0 1474 240" fill="none" xmlns="http://www.w3.org/2000/svg">
<g clip-path="url(#clip0_38_10)">
<path d="M484.734 240H494.266C594.087 240 675 148.676 675 36.0112V1.00001H304V36.0112C304 148.656 384.93 240 484.734 240Z" fill="#F40000"/>
<path d="M1010 79C1010 35.9218 1044.92 1 1088 1H1321V241H1010V79Z" fill="#F40000"/>
<path d="M821.708 1H831.292C931.651 1 1013 92.7427 1013 205.924V241.096H640V205.924C640 92.7625 721.366 1 821.708 1Z" fill="#F40000"/>
<path d="M1474 117.964L1474 124.133C1474 188.733 1415.54 241.096 1343.41 241.096L1321 241.096L1321 0.999994L1343.41 0.999995C1415.52 0.999998 1474 53.3748 1474 117.964Z" fill="#F40000"/>
<path d="M305 116.964L305 123.133C305 187.733 246.537 240.096 174.413 240.096L152 240.096L152 -6.05074e-06L174.413 -5.16436e-06C246.525 -2.31253e-06 305 52.3748 305 116.964Z" fill="#F40000"/>
<path d="M151 116.964L151 123.133C151 187.733 93.3016 240.096 22.12 240.096L-5.2381e-07 240.096L1.12305e-05 -5.89324e-06L22.1201 -5.02994e-06C93.2892 -2.25234e-06 151 52.3748 151 116.964Z" fill="#F40000"/>
</g>
<defs>
<clipPath id="clip0_38_10">
<rect width="1474" height="240" fill="white"/>
</clipPath>
</defs>
</svg>
