<svg width="1474" height="240" viewBox="0 0 1474 240" fill="none" xmlns="http://www.w3.org/2000/svg">
<g clip-path="url(#clip0_38_17)">
<path d="M637.734 239H647.266C747.087 239 828 147.676 828 35.0112V5.3048e-06H457V35.0112C457 147.656 537.93 239 637.734 239Z" fill="#F40000"/>
<path d="M1163 78C1163 34.9218 1197.92 0 1241 0H1474V240H1163V78Z" fill="#F40000"/>
<path d="M974.708 0H984.292C1084.65 0 1166 91.7427 1166 204.924V240.096H793V204.924C793 91.7625 874.366 0 974.708 0Z" fill="#F40000"/>
<path d="M458 115.964L458 122.133C458 186.733 399.537 239.096 327.413 239.096L305 239.096L305 -1.00001L327.413 -1.00001C399.525 -1 458 51.3748 458 115.964Z" fill="#F40000"/>
<path d="M304 115.964L304 122.133C304 186.733 246.302 239.096 175.12 239.096L153 239.096L153 -1.00001L175.12 -1.00001C246.289 -1 304 51.3748 304 115.964Z" fill="#F40000"/>
<path d="M153 115.964L153 122.133C153 186.733 95.3016 239.096 24.12 239.096L2 239.096L2.00001 -1.00001L24.1201 -1.00001C95.2892 -1 153 51.3748 153 115.964Z" fill="#F40000"/>
</g>
<defs>
<clipPath id="clip0_38_17">
<rect width="1474" height="240" fill="white"/>
</clipPath>
</defs>
</svg>
