<svg width="1474" height="240" viewBox="0 0 1474 240" fill="none" xmlns="http://www.w3.org/2000/svg">
<g clip-path="url(#clip0_38_24)">
<path d="M945.734 240H955.266C1055.09 240 1136 148.676 1136 36.0112V1.00001H765V36.0112C765 148.656 845.93 240 945.734 240Z" fill="#F40000"/>
<path d="M1282.71 1H1292.29C1392.65 1 1474 92.7427 1474 205.924V241.096H1101V205.924C1101 92.7625 1182.37 1 1282.71 1Z" fill="#F40000"/>
<path d="M766 116.964L766 123.133C766 187.733 707.537 240.096 635.413 240.096L613 240.096L613 -6.05074e-06L635.413 -5.16436e-06C707.525 -2.31253e-06 766 52.3748 766 116.964Z" fill="#F40000"/>
<path d="M612 116.964L612 123.133C612 187.733 554.302 240.096 483.12 240.096L461 240.096L461 -5.89324e-06L483.12 -5.02994e-06C554.289 -2.25234e-06 612 52.3748 612 116.964Z" fill="#F40000"/>
<path d="M461 116.964L461 123.133C461 187.733 403.302 240.096 332.12 240.096L310 240.096L310 -5.89324e-06L332.12 -5.02994e-06C403.289 -2.25234e-06 461 52.3748 461 116.964Z" fill="#F40000"/>
<path d="M-1 78C-1 34.9218 33.9218 0 77 0H310V240H-1V78Z" fill="#F40000"/>
</g>
<defs>
<clipPath id="clip0_38_24">
<rect width="1474" height="240" fill="white"/>
</clipPath>
</defs>
</svg>
