<svg width="1474" height="240" viewBox="0 0 1474 240" fill="none" xmlns="http://www.w3.org/2000/svg">
<g clip-path="url(#clip0_38_55)">
<path d="M1283.73 240H1293.27C1393.09 240 1474 148.676 1474 36.0112V1.00001H1103V36.0112C1103 148.656 1183.93 240 1283.73 240Z" fill="#F40000"/>
<path d="M1104 116.964L1104 123.133C1104 187.733 1045.54 240.096 973.413 240.096L951 240.096L951 -6.05074e-06L973.413 -5.16436e-06C1045.52 -2.31253e-06 1104 52.3748 1104 116.964Z" fill="#F40000"/>
<path d="M950 116.964L950 123.133C950 187.733 892.302 240.096 821.12 240.096L799 240.096L799 -5.89324e-06L821.12 -5.02994e-06C892.289 -2.25234e-06 950 52.3748 950 116.964Z" fill="#F40000"/>
<path d="M799 116.964L799 123.133C799 187.733 741.302 240.096 670.12 240.096L648 240.096L648 -5.89324e-06L670.12 -5.02994e-06C741.289 -2.25234e-06 799 52.3748 799 116.964Z" fill="#F40000"/>
<path d="M337 78C337 34.9218 371.922 0 415 0H648V240H337V78Z" fill="#F40000"/>
<path d="M145.708 1H155.292C255.651 1 337 92.7427 337 205.924V241.096H-36V205.924C-36 92.7625 45.3665 1 145.708 1Z" fill="#F40000"/>
</g>
<defs>
<clipPath id="clip0_38_55">
<rect width="1474" height="240" fill="white"/>
</clipPath>
</defs>
</svg>
