<svg width="1474" height="240" viewBox="0 0 1474 240" fill="none" xmlns="http://www.w3.org/2000/svg">
<g clip-path="url(#clip0_38_68)">
<path d="M1474 116.964L1474 123.133C1474 187.733 1415.54 240.096 1343.41 240.096L1321 240.096L1321 -6.05074e-06L1343.41 -5.16436e-06C1415.52 -2.31253e-06 1474 52.3748 1474 116.964Z" fill="#F40000"/>
<path d="M1320 116.964L1320 123.133C1320 187.733 1262.3 240.096 1191.12 240.096L1169 240.096L1169 -5.89324e-06L1191.12 -5.02994e-06C1262.29 -2.25234e-06 1320 52.3748 1320 116.964Z" fill="#F40000"/>
<path d="M1169 116.964L1169 123.133C1169 187.733 1111.3 240.096 1040.12 240.096L1018 240.096L1018 -5.89324e-06L1040.12 -5.02994e-06C1111.29 -2.25234e-06 1169 52.3748 1169 116.964Z" fill="#F40000"/>
<path d="M707 78C707 34.9218 741.922 0 785 0H1018V240H707V78Z" fill="#F40000"/>
<path d="M515.708 1H525.292C625.651 1 707 92.7427 707 205.924V241.096H334V205.924C334 92.7625 415.366 1 515.708 1Z" fill="#F40000"/>
<path d="M180.734 241H190.266C290.087 241 371 149.676 371 37.0112V2.00001H0V37.0112C0 149.656 80.9302 241 180.734 241Z" fill="#F40000"/>
</g>
<defs>
<clipPath id="clip0_38_68">
<rect width="1474" height="240" fill="white"/>
</clipPath>
</defs>
</svg>
