<svg width="1474" height="240" viewBox="0 0 1474 240" fill="none" xmlns="http://www.w3.org/2000/svg">
<g clip-path="url(#clip0_39_75)">
<path d="M180.734 239H190.266C290.087 239 371 147.676 371 35.0112V5.3048e-06H0V35.0112C0 147.656 80.9302 239 180.734 239Z" fill="#F40000"/>
<path d="M706 78C706 34.9218 740.922 0 784 0H1017V240H706V78Z" fill="#F40000"/>
<path d="M517.708 0H527.292C627.651 0 709 91.7427 709 204.924V240.096H336V204.924C336 91.7625 417.366 0 517.708 0Z" fill="#F40000"/>
<path d="M1170 116.964L1170 123.133C1170 187.733 1111.54 240.096 1039.41 240.096L1017 240.096L1017 -5.97129e-06L1039.41 -5.09656e-06C1111.52 -2.28217e-06 1170 52.3748 1170 116.964Z" fill="#F40000"/>
<path d="M1321 116.964L1321 123.133C1321 187.733 1263.3 240.096 1192.12 240.096L1170 240.096L1170 -5.89324e-06L1192.12 -5.02994e-06C1263.29 -2.25234e-06 1321 52.3748 1321 116.964Z" fill="#F40000"/>
<path d="M1474 116.964L1474 123.133C1474 187.733 1415.54 240.096 1343.41 240.096L1321 240.096L1321 -6.05074e-06L1343.41 -5.16436e-06C1415.52 -2.31253e-06 1474 52.3748 1474 116.964Z" fill="#F40000"/>
</g>
<defs>
<clipPath id="clip0_39_75">
<rect width="1474" height="240" fill="white"/>
</clipPath>
</defs>
</svg>
