<svg width="1474" height="240" viewBox="0 0 1474 240" fill="none" xmlns="http://www.w3.org/2000/svg">
<g clip-path="url(#clip0_38_3)">
<path d="M333.734 239H343.266C443.087 239 524 147.676 524 35.0112V5.3048e-06H153V35.0112C153 147.656 233.93 239 333.734 239Z" fill="#F40000"/>
<path d="M859 78C859 34.9218 893.922 0 937 0H1170V240H859V78Z" fill="#F40000"/>
<path d="M670.708 0H680.292C780.651 0 862 91.7427 862 204.924V240.096H489V204.924C489 91.7625 570.366 0 670.708 0Z" fill="#F40000"/>
<path d="M1323 116.964L1323 123.133C1323 187.733 1264.54 240.096 1192.41 240.096L1170 240.096L1170 -5.97129e-06L1192.41 -5.09656e-06C1264.52 -2.28217e-06 1323 52.3748 1323 116.964Z" fill="#F40000"/>
<path d="M1474 116.964L1474 123.133C1474 187.733 1416.3 240.096 1345.12 240.096L1323 240.096L1323 -5.89324e-06L1345.12 -5.02994e-06C1416.29 -2.25234e-06 1474 52.3748 1474 116.964Z" fill="#F40000"/>
<path d="M154 115.964L154 122.133C154 186.733 95.5374 239.096 23.413 239.096L1.00001 239.096L1.00002 -1.00001L23.413 -1.00001C95.5249 -1 154 51.3748 154 115.964Z" fill="#F40000"/>
</g>
<defs>
<clipPath id="clip0_38_3">
<rect width="1474" height="240" fill="white"/>
</clipPath>
</defs>
</svg>
