<svg width="196" height="279" viewBox="0 0 196 279" fill="none" xmlns="http://www.w3.org/2000/svg">
<path d="M0.779875 93.2335C0.746094 93.4339 0.68334 94.1302 0.59375 95.2255V93.2335H0.779875Z" fill="#F40000"/>
<path d="M0.779875 93.2335H0.806177C0.801992 93.1526 0.793181 93.1546 0.779875 93.2335Z" fill="#F40000"/>
<path fill-rule="evenodd" clip-rule="evenodd" d="M104.073 202.848V278.699L195.594 278.699V0.699228L0.809033 0.699219L0.809026 93.2335H0.806177C0.808058 93.2699 0.809005 93.323 0.809005 93.3934V278.699H92.3295V202.848H104.073ZM104.073 178.698V127.388C121.081 125.005 133.635 110.708 133.635 93.2335C133.635 74.1706 117.842 58.6821 98.4039 58.6821C78.9659 58.6821 62.7676 74.1706 62.7676 93.2335C62.7676 110.708 75.7262 125.005 92.3295 127.388V178.698H104.073Z" fill="#F40000"/>
</svg>
