<svg width="275" height="392" viewBox="0 0 275 392" fill="none" xmlns="http://www.w3.org/2000/svg">
<path d="M0.262485 130.48C0.214845 130.763 0.126345 131.744 0 133.289V130.48H0.262485Z" fill="white"/>
<path d="M0.262485 130.48H0.299577C0.293675 130.366 0.281249 130.369 0.262485 130.48Z" fill="white"/>
<path fill-rule="evenodd" clip-rule="evenodd" d="M145.933 285.045V392L275 392V1.28756e-05L0.303604 0L0.303594 130.48H0.299577C0.30223 130.531 0.303565 130.606 0.303565 130.705V392H129.371V285.045H145.933ZM145.933 250.991V178.64C169.919 175.28 187.623 155.12 187.623 130.48C187.623 103.6 165.35 81.76 137.937 81.76C110.525 81.76 87.681 103.6 87.681 130.48C87.681 155.12 105.956 175.28 129.371 178.64V250.991H145.933Z" fill="white"/>
</svg>
