<svg width="124" height="168" viewBox="0 0 124 168" fill="none" xmlns="http://www.w3.org/2000/svg">
<path d="M0.118357 55.92C0.0968754 56.0411 0.0569701 56.4619 0 57.1238V55.92H0.118357Z" fill="white"/>
<path d="M0.118357 55.92H0.135082C0.132421 55.8711 0.126818 55.8723 0.118357 55.92Z" fill="white"/>
<path fill-rule="evenodd" clip-rule="evenodd" d="M65.8024 122.162V168L124 168V5.51812e-06L0.136898 0L0.136893 55.92H0.135082C0.136278 55.942 0.13688 55.9741 0.13688 56.0166V168H58.3345V122.162H65.8024ZM65.8024 107.567V76.56C76.6179 75.12 84.6007 66.48 84.6007 55.92C84.6007 44.4 74.5578 35.04 62.1972 35.04C49.8366 35.04 39.5362 44.4 39.5362 55.92C39.5362 66.48 47.7765 75.12 58.3345 76.56V107.567H65.8024Z" fill="white"/>
</svg>
