<svg width="1440" height="559" viewBox="0 0 1440 559" fill="none" xmlns="http://www.w3.org/2000/svg">
<rect y="59" width="100.962" height="500" fill="#F40000"/>
<rect x="384.053" y="175" width="96.0133" height="384" fill="#F40000"/>
<rect x="99.9727" y="143" width="96.0133" height="416" fill="#F40000"/>
<rect x="194.996" y="198" width="96.0133" height="361" fill="#F40000"/>
<rect x="290.02" y="103" width="95.0235" height="456" fill="#F40000"/>
<rect x="479.076" y="268" width="104.922" height="291" fill="#F40000"/>
<rect x="960.133" y="465" width="95.8158" height="93.8066" fill="#F40000"/>
<rect x="583.008" y="380" width="92.8524" height="178.632" fill="#F40000"/>
<rect x="675.062" y="472" width="96.8035" height="86.821" fill="#F40000"/>
<rect x="771.076" y="409" width="95.8158" height="149.691" fill="#F40000"/>
<rect x="866.1" y="343" width="94.828" height="215.556" fill="#F40000"/>
<rect x="1055.16" y="425" width="96.8035" height="133.724" fill="#F40000"/>
<rect x="1151.17" y="341" width="93.8402" height="217.551" fill="#F40000"/>
<rect x="1244.21" y="388" width="99.7669" height="170.648" fill="#F40000"/>
<rect x="1343.2" y="341" width="96.8035" height="217.551" fill="#F40000"/>
</svg>
