<svg width="1440" height="559" viewBox="0 0 1440 559" fill="none" xmlns="http://www.w3.org/2000/svg">
<g clip-path="url(#clip0_164_37)">
<rect width="100.962" height="566" fill="#F40000"/>
<rect x="384" y="102" width="96" height="464" fill="#F40000"/>
<rect x="100" y="102" width="96" height="464" fill="#F40000"/>
<rect x="195" y="259" width="96" height="307" fill="#F40000"/>
<rect x="290" y="102" width="95" height="464" fill="#F40000"/>
<rect x="479" y="331" width="105" height="235" fill="#F40000"/>
<rect x="960" y="287" width="96" height="279" fill="#F40000"/>
<rect x="583" y="287" width="93" height="279" fill="#F40000"/>
<rect x="675" y="363" width="97" height="203" fill="#F40000"/>
<rect x="771" y="287" width="96" height="279" fill="#F40000"/>
<rect x="866" y="164" width="95" height="402" fill="#F40000"/>
<rect x="1055" y="422" width="97" height="144" fill="#F40000"/>
<rect x="1151" y="287" width="94" height="279" fill="#F40000"/>
<rect x="1244" y="448" width="100" height="118" fill="#F40000"/>
<rect x="1343" y="189" width="97" height="377" fill="#F40000"/>
</g>
<defs>
<clipPath id="clip0_164_37">
<rect width="1440" height="559" fill="white"/>
</clipPath>
</defs>
</svg>
