<svg width="1633" height="689" viewBox="0 0 1633 689" fill="none" xmlns="http://www.w3.org/2000/svg">
<g clip-path="url(#clip0_46_322)">
<path d="M819.684 0.312866L696.331 -1145.87H335.23L819.684 0.312866Z" fill="#F40000"/>
<path d="M819.684 0.312866L189.341 -1154H-259.529L819.684 0.312866Z" fill="#F40000"/>
<path d="M819.684 0.312866L-261.02 -910.131V-481.442L819.684 0.312866Z" fill="#F40000"/>
<path d="M819.684 0.312866L-264.001 -347.607V0.312866H819.684Z" fill="#F40000"/>
<path d="M816.703 0.312866L939.676 -1140.99H1299.67L816.703 0.312866Z" fill="#F40000"/>
<path d="M816.703 0.312866L1445.3 -1149.12H1892.93L816.703 0.312866Z" fill="#F40000"/>
<path d="M816.703 0.312866L1894.42 -905.254V-478.861L816.703 0.312866Z" fill="#F40000"/>
<path d="M816.703 0.312866L1897.41 -345.981V0.312866H816.703Z" fill="#F40000"/>
<path d="M821.176 0.312866L697.064 1144.87H333.741L821.176 0.312866Z" fill="#F40000"/>
<path d="M821.176 0.312866L189.963 1153H-259.527L821.176 0.312866Z" fill="#F40000"/>
<path d="M821.176 0.312866L-261.018 909.131V481.208L821.176 0.312866Z" fill="#F40000"/>
<path d="M821.176 0.312866L-263.999 348.232V0.312866H821.176Z" fill="#F40000"/>
<path d="M818.195 0.312866L941.169 1139.99H1301.16L818.195 0.312866Z" fill="#F40000"/>
<path d="M818.195 0.312866L1445.93 1148.12H1892.94L818.195 0.312866Z" fill="#F40000"/>
<path d="M818.195 0.312866L1894.43 904.254V478.627L818.195 0.312866Z" fill="#F40000"/>
<path d="M818.195 0.312866L1897.41 346.607V0.312866H818.195Z" fill="#F40000"/>
</g>
<defs>
<clipPath id="clip0_46_322">
<rect width="1633" height="689" fill="white"/>
</clipPath>
</defs>
</svg>
