<svg width="1440" height="559" viewBox="0 0 1440 559" fill="none" xmlns="http://www.w3.org/2000/svg">
<g clip-path="url(#clip0_164_36)">
<rect width="100.962" height="566" fill="#F40000"/>
<rect x="384" y="28" width="96" height="538" fill="#F40000"/>
<rect x="100" y="59" width="96" height="507" fill="#F40000"/>
<rect x="195" y="396" width="96" height="170" fill="#F40000"/>
<rect x="290" y="189" width="95" height="377" fill="#F40000"/>
<rect x="479" y="332" width="105" height="234" fill="#F40000"/>
<rect x="960" y="287" width="96" height="279" fill="#F40000"/>
<rect x="583" y="118" width="93" height="448" fill="#F40000"/>
<rect x="675" y="233" width="97" height="333" fill="#F40000"/>
<rect x="771" y="151" width="96" height="415" fill="#F40000"/>
<rect x="866" y="91" width="95" height="475" fill="#F40000"/>
<rect x="1055" y="360" width="97" height="206" fill="#F40000"/>
<rect x="1151" y="131" width="94" height="435" fill="#F40000"/>
<rect x="1244" y="524" width="100" height="42" fill="#F40000"/>
<rect x="1343" y="7" width="97" height="559" fill="#F40000"/>
</g>
<defs>
<clipPath id="clip0_164_36">
<rect width="1440" height="559" fill="white"/>
</clipPath>
</defs>
</svg>
