<svg width="930" height="415" viewBox="0 0 930 415" fill="none" xmlns="http://www.w3.org/2000/svg">
<path fill-rule="evenodd" clip-rule="evenodd" d="M776.152 137.127C776.184 138.745 776.214 140.317 776.12 141.896C776.14 142.537 776.133 143.254 776.127 143.948C776.123 144.286 776.12 144.619 776.12 144.935C776.12 145.657 776.086 146.359 776.052 147.055C776.014 147.83 775.976 148.596 775.987 149.372H775.943V149.932C775.943 160.588 774.304 171.243 772.357 183.091C768.406 207.134 738.154 287.914 695.963 287.914C671.914 287.914 670.187 251.998 670.187 183.431C670.187 182.066 670.15 180.462 670.111 178.775L670.111 178.774C670.097 178.19 670.082 177.595 670.066 176.997C669.983 173.859 669.898 170.623 670.111 168.219H641.325L641.325 408.8H677.352C753.917 408.8 780.355 300.598 781.246 166.556H781.269L781.269 159.464V411.105H781.809V411.409H789.19V159.582L789.19 166.68H789.214C790.11 300.821 816.712 409.103 893.75 409.103H930L930 168.343H901.723V233.569L901.701 233.574C901.325 258.35 895.403 290.516 871.266 290.516C863.582 290.516 854.903 284.628 846.353 275.729C829.777 261.253 816.542 236.601 808.088 215.497C806.01 210.667 804.387 206.293 803.33 202.66C803.314 202.581 803.299 202.503 803.284 202.425C800.665 194.579 798.922 187.853 798.158 183.227C796.199 171.37 794.55 160.707 794.55 150.044V149.482H794.505C794.516 148.706 794.478 147.939 794.44 147.164L794.44 147.164C794.406 146.467 794.371 145.765 794.371 145.042C794.371 144.726 794.368 144.393 794.365 144.054C794.358 143.36 794.351 142.643 794.371 142.002C794.277 140.421 794.307 138.848 794.339 137.229C794.355 136.402 794.371 135.562 794.371 134.704C794.371 119.53 800.035 103.129 805.164 96.4463C814.447 81.0396 830.559 70.8487 848.88 70.8487C877.596 70.8487 900.884 95.884 900.96 126.798L900.96 126.95V154.417H930.001V0.00100202L880.301 0C830.334 0 789.884 62.3292 789.199 149.482H789.19V0.00100202L788.606 0.00100199V0.00100087L781.269 0.00100128V149.372H781.26C780.58 62.2831 740.379 0 690.719 0L641.324 0.00100128V154.302H670.187V126.856L670.187 126.704C670.263 95.813 693.407 70.7963 721.946 70.7963C740.155 70.7963 756.167 80.9797 765.394 96.3749C770.491 103.053 776.12 119.441 776.12 134.604C776.12 135.462 776.136 136.301 776.152 137.127Z" fill="white"/>
<path d="M288.932 0L0 2.18712e-05L3.13958e-05 408.9H28.5333L28.5333 174.763C28.5333 159.079 39.3562 146.756 52.147 146.756C61.0022 146.756 68.8734 152.357 73.793 160.199L200.717 408.9L288.932 408.9V64.9759L28.5333 64.9759L28.5333 32.488L288.932 32.488V0Z" fill="white"/>
<path d="M324.028 136.297C323.979 136.592 323.889 137.618 323.76 139.231V136.297H324.028Z" fill="white"/>
<path d="M324.028 136.297H324.066C324.06 136.178 324.047 136.181 324.028 136.297Z" fill="white"/>
<path fill-rule="evenodd" clip-rule="evenodd" d="M472.979 297.753L472.668 414.06H604.642L604.953 9.22183e-05L324.07 7.87686e-05L324.07 136.297H324.066C324.069 136.351 324.07 136.429 324.07 136.533L323.76 414.06H455.734L456.044 297.753H472.979ZM472.979 262.18V186.604C497.505 183.094 515.608 162.036 515.608 136.297C515.608 108.219 492.833 85.4051 464.804 85.4051C436.774 85.4051 413.415 108.219 413.415 136.297C413.415 162.036 432.102 183.094 456.044 186.604V262.18H472.979Z" fill="white"/>
</svg>
