<svg width="1016" height="785" viewBox="0 0 1016 785" fill="none" xmlns="http://www.w3.org/2000/svg">
<path d="M515.226 271.904L500.688 271.904C348.45 271.904 225.049 418.934 225.049 600.323L225.049 656.691L790.865 656.691L790.865 600.323C790.865 418.966 667.438 271.904 515.226 271.904Z" fill="#F40000"/>
<path d="M521.008 0.000145597L494.906 0.0001404C221.565 8.59733e-05 -2.25965e-05 189.347 -5.04735e-05 422.943L-5.91365e-05 495.533L1015.91 495.534L1015.91 422.943C1015.91 189.388 794.302 0.000200014 521.008 0.000145597Z" fill="#F40000"/>
<path d="M511.943 603.401L504.272 603.401C423.935 603.401 358.817 672.574 358.817 757.912L358.817 784.431L657.398 784.431L657.398 757.912C657.398 672.589 592.266 603.401 511.943 603.401Z" fill="#F40000"/>
</svg>
