<svg width="1453" height="1206" viewBox="0 0 1453 1206" fill="none" xmlns="http://www.w3.org/2000/svg">
<g clip-path="url(#clip0_173_34)" filter="url(#filter0_d_173_34)">
<path d="M737.615 -5.31505e-05L713.385 -5.59538e-05C459.663 -8.53093e-05 254 191.054 254 426.755L254 500L1197 500L1197 426.755C1197 191.095 991.293 -2.38001e-05 737.615 -5.31505e-05Z" fill="#F40000"/>
<path d="M731.679 432L719.321 432C589.903 432 485 529.438 485 649.645L485 687L966 687L966 649.645C966 529.459 861.074 432 731.679 432Z" fill="#F40000"/>
<path d="M745.064 560L707.936 560C319.146 560 4.00008 852.695 4.00002 1213.79L4 1326L1449 1326L1449 1213.79C1449 852.758 1133.79 560 745.064 560Z" fill="#F40000"/>
</g>
<defs>
<filter id="filter0_d_173_34" x="0" y="0" width="1453" height="1206" filterUnits="userSpaceOnUse" color-interpolation-filters="sRGB">
<feFlood flood-opacity="0" result="BackgroundImageFix"/>
<feColorMatrix in="SourceAlpha" type="matrix" values="0 0 0 0 0 0 0 0 0 0 0 0 0 0 0 0 0 0 127 0" result="hardAlpha"/>
<feOffset dy="4"/>
<feGaussianBlur stdDeviation="2"/>
<feComposite in2="hardAlpha" operator="out"/>
<feColorMatrix type="matrix" values="0 0 0 0 0 0 0 0 0 0 0 0 0 0 0 0 0 0 0.25 0"/>
<feBlend mode="normal" in2="BackgroundImageFix" result="effect1_dropShadow_173_34"/>
<feBlend mode="normal" in="SourceGraphic" in2="effect1_dropShadow_173_34" result="shape"/>
</filter>
<clipPath id="clip0_173_34">
<rect width="1445" height="1198" fill="white" transform="translate(4)"/>
</clipPath>
</defs>
</svg>
