<svg width="1453" height="1206" viewBox="0 0 1453 1206" fill="none" xmlns="http://www.w3.org/2000/svg">
<g clip-path="url(#clip0_173_38)" filter="url(#filter0_d_173_38)">
<path d="M732.679 943L720.321 943C590.903 943 486 1040.44 486 1160.64L486 1198L967 1198L967 1160.65C967 1040.46 862.074 943 732.679 943Z" fill="#F40000"/>
<path d="M738.615 512L714.385 512C460.663 512 255 703.055 255 938.755L255 1012L1198 1012L1198 938.755C1198 703.096 992.293 512 738.615 512Z" fill="#F40000"/>
<path d="M745.064 0.000151033L707.936 0.000146123C319.146 9.46984e-05 4.00008 292.695 4.00002 653.789L4 766L1449 766L1449 653.789C1449 292.758 1133.79 0.000202448 745.064 0.000151033Z" fill="#F40000"/>
</g>
<defs>
<filter id="filter0_d_173_38" x="0" y="0" width="1453" height="1206" filterUnits="userSpaceOnUse" color-interpolation-filters="sRGB">
<feFlood flood-opacity="0" result="BackgroundImageFix"/>
<feColorMatrix in="SourceAlpha" type="matrix" values="0 0 0 0 0 0 0 0 0 0 0 0 0 0 0 0 0 0 127 0" result="hardAlpha"/>
<feOffset dy="4"/>
<feGaussianBlur stdDeviation="2"/>
<feComposite in2="hardAlpha" operator="out"/>
<feColorMatrix type="matrix" values="0 0 0 0 0 0 0 0 0 0 0 0 0 0 0 0 0 0 0.25 0"/>
<feBlend mode="normal" in2="BackgroundImageFix" result="effect1_dropShadow_173_38"/>
<feBlend mode="normal" in="SourceGraphic" in2="effect1_dropShadow_173_38" result="shape"/>
</filter>
<clipPath id="clip0_173_38">
<rect width="1445" height="1198" fill="white" transform="translate(4)"/>
</clipPath>
</defs>
</svg>
