<svg width="1453" height="1206" viewBox="0 0 1453 1206" fill="none" xmlns="http://www.w3.org/2000/svg">
<g clip-path="url(#clip0_173_27)" filter="url(#filter0_d_173_27)">
<path d="M732.679 -2.71107e-05L720.321 -2.85406e-05C590.903 -4.35141e-05 486 97.4376 486 217.645L486 255L967 255L967 217.645C967 97.4586 862.074 -1.21398e-05 732.679 -2.71107e-05Z" fill="#F40000"/>
<path d="M738.615 698L714.385 698C460.663 698 255 889.055 255 1124.76L255 1198L1198 1198L1198 1124.76C1198 889.096 992.293 698 738.615 698Z" fill="#F40000"/>
<path d="M745.064 186L707.936 186C319.146 186 4.00008 478.695 4.00002 839.789L4 952L1449 952L1449 839.789C1449 478.758 1133.79 186 745.064 186Z" fill="#F40000"/>
</g>
<defs>
<filter id="filter0_d_173_27" x="0" y="0" width="1453" height="1206" filterUnits="userSpaceOnUse" color-interpolation-filters="sRGB">
<feFlood flood-opacity="0" result="BackgroundImageFix"/>
<feColorMatrix in="SourceAlpha" type="matrix" values="0 0 0 0 0 0 0 0 0 0 0 0 0 0 0 0 0 0 127 0" result="hardAlpha"/>
<feOffset dy="4"/>
<feGaussianBlur stdDeviation="2"/>
<feComposite in2="hardAlpha" operator="out"/>
<feColorMatrix type="matrix" values="0 0 0 0 0 0 0 0 0 0 0 0 0 0 0 0 0 0 0.25 0"/>
<feBlend mode="normal" in2="BackgroundImageFix" result="effect1_dropShadow_173_27"/>
<feBlend mode="normal" in="SourceGraphic" in2="effect1_dropShadow_173_27" result="shape"/>
</filter>
<clipPath id="clip0_173_27">
<rect width="1445" height="1198" fill="white" transform="translate(4)"/>
</clipPath>
</defs>
</svg>
