<svg width="1445" height="1114" viewBox="0 0 1445 1114" fill="none" xmlns="http://www.w3.org/2000/svg">
<path d="M728.679 864.315L716.321 864.315C586.903 864.315 482 959.476 482 1076.87L482 1113.36L963 1113.36L963 1076.87C963 959.496 858.074 864.315 728.679 864.315Z" fill="#F40000"/>
<path d="M734.615 473.665L710.385 473.665C456.663 473.665 251 660.254 251 890.446L251 961.979L1194 961.979L1194 890.446C1194 660.294 988.293 473.665 734.615 473.665Z" fill="#F40000"/>
<path d="M741.064 -9.09312e-05L703.936 -9.57272e-05C315.146 -0.000145949 8.16669e-05 274.285 2.31458e-05 612.667L4.96008e-06 717.821L1445 717.822L1445 612.668C1445 274.345 1129.79 -4.07178e-05 741.064 -9.09312e-05Z" fill="#F40000"/>
</svg>
