<svg width="1190" height="384" viewBox="0 0 1190 384" fill="none" xmlns="http://www.w3.org/2000/svg">
<path d="M576 0.000325862V382H608.988L608.988 159.724C608.988 147.416 620.547 137.438 634.804 137.438C649.062 137.438 660.621 147.416 660.621 159.724L660.621 382L851 382V0L576 0.000325862Z" fill="white"/>
<path d="M287.262 127.151C287.215 127.427 287.126 128.384 287 129.889V127.151H287.262Z" fill="white"/>
<path d="M287.262 127.151H287.3C287.294 127.04 287.281 127.043 287.262 127.151Z" fill="white"/>
<path fill-rule="evenodd" clip-rule="evenodd" d="M432.933 277.773V382L562 382V1.25472e-05L287.304 0L287.304 127.151H287.3C287.302 127.201 287.304 127.274 287.304 127.371V382H416.371V277.773H432.933ZM432.933 244.588V174.083C456.919 170.809 474.623 151.163 474.623 127.151C474.623 100.957 452.35 79.6743 424.937 79.6743C397.525 79.6743 374.681 100.957 374.681 127.151C374.681 151.163 392.956 170.809 416.371 174.083V244.588H432.933Z" fill="white"/>
<path d="M199.539 200.229L13.3353 201.29V185.381L199.539 184.32C240.863 184.32 275 143.177 275 92.16C275 41.6914 240.863 0 199.539 0H35.5905C-0.928684 0 -0.455445 33.3891 0.148292 75.9855C0.227724 81.5898 0.309415 87.3534 0.309415 93.2214V152.932L5.39885 152.976H110.633V87.9823H111.126C115.477 49.9718 148.14 20.4346 187.789 20.4346C230.4 20.4346 264.944 54.5523 264.944 96.6386C264.944 120.986 253.383 142.666 235.387 156.617C229.256 161.8 222.337 165.703 214.893 168.008C208.386 170.42 201.46 171.988 194.254 172.579V172.843H0.309415V214.847H199.434C218.574 215.068 235.686 225.595 247.194 242.082C258.451 255.325 265.231 272.406 265.231 291.051C265.231 306.651 260.485 321.157 252.341 333.235C241.087 354.711 221.322 368.957 198.819 368.957C193.912 368.957 188.675 368.322 183.299 367.111C145.831 364.851 115.588 336.18 111.413 299.707H110.92V235.343L37.2658 234.714H0.575835V234.401L0.309415 234.398V293.45C0.309415 299.348 0.226891 305.104 0.147081 310.67C-0.456062 352.739 -0.904252 384 35.5905 384H199.539C240.863 384 275 342.857 275 292.389C275 241.371 240.863 200.229 199.539 200.229Z" fill="white"/>
<path fill-rule="evenodd" clip-rule="evenodd" d="M974.347 0.532664L878.963 0.532687L871 0.532677L871 281.684C871 336.609 902.635 381.201 942.081 381.201L1072.53 381.201C1111.97 381.201 1144.39 336.065 1144 281.14C1144 255.581 1136.97 232.197 1125.25 214.251C1117.05 201.743 1106.5 192.498 1094.4 187.06C1087.76 184.341 1080.34 182.71 1072.92 182.71L942.471 182.71C937.394 182.71 934.66 174.009 938.175 169.114L1059.64 0.532654L974.347 0.532664ZM882.326 290.385C882.509 291.404 882.606 292.424 882.698 293.388C882.802 294.48 882.9 295.5 883.107 296.366C883.302 297.182 883.4 297.862 883.498 298.542C883.595 299.222 883.693 299.901 883.888 300.717C883.888 301.261 883.986 301.941 884.084 302.62C884.181 303.3 884.279 303.98 884.279 304.524C884.865 306.427 885.353 308.33 885.841 310.234C886.329 312.137 886.817 314.04 887.403 315.944C887.989 317.575 888.575 319.071 889.161 320.566C889.747 322.062 890.332 323.557 890.918 325.189C890.918 325.732 891.309 326.276 891.699 326.82C892.48 328.451 893.262 330.083 894.043 331.17C894.043 331.442 894.14 331.578 894.238 331.714C894.336 331.85 894.433 331.986 894.433 332.258L894.824 332.802C895.019 333.074 895.117 333.346 895.214 333.618C895.312 333.889 895.41 334.161 895.605 334.433C895.995 334.977 896.386 335.521 896.386 336.065H896.777C896.777 336.609 897.167 337.152 897.558 337.152V337.696C897.707 337.904 897.856 338.032 897.983 338.142C898.19 338.319 898.339 338.448 898.339 338.784C898.729 338.784 898.729 339.328 898.729 339.328L900.682 342.047C900.682 342.047 901.073 342.047 901.073 342.591C901.314 342.591 901.406 342.798 901.534 343.085C901.612 343.263 901.705 343.47 901.854 343.678H902.244C902.244 344.222 902.635 344.766 903.025 344.766V345.31C903.416 345.31 903.806 345.853 904.197 346.397C904.392 346.669 904.588 346.805 904.783 346.941C904.978 347.077 905.173 347.213 905.369 347.485L905.759 348.029C905.955 348.029 906.052 348.165 906.15 348.301C906.247 348.436 906.345 348.572 906.54 348.572C907.321 349.66 908.493 350.748 909.665 351.835C910.055 352.379 910.446 352.923 910.836 352.923C912.008 353.739 913.082 354.554 914.156 355.37C915.23 356.186 916.304 357.001 917.476 357.817C918.843 358.633 920.21 359.313 921.577 359.993C922.944 360.672 924.311 361.352 925.677 362.168C926.068 362.168 926.556 362.304 927.044 362.44C927.533 362.576 928.021 362.712 928.411 362.712C928.997 362.983 929.485 363.119 929.973 363.255C930.462 363.391 930.95 363.527 931.536 363.799C932.158 364.088 932.89 364.223 933.675 364.368C934.367 364.496 935.099 364.632 935.832 364.887H947.939C948.72 364.615 949.501 364.479 950.282 364.343C951.063 364.207 951.844 364.071 952.626 363.799C953.016 363.527 953.504 363.391 953.993 363.255C954.481 363.119 954.969 362.983 955.359 362.712C955.945 362.712 956.433 362.576 956.922 362.44C957.41 362.304 957.898 362.168 958.484 362.168C959.851 361.352 961.218 360.672 962.585 359.992C963.952 359.313 965.319 358.633 966.685 357.817C967.662 357.002 968.736 356.186 969.81 355.37C970.884 354.554 971.958 353.739 972.934 352.923C973.325 352.923 973.715 352.379 974.106 351.835L977.621 348.572L978.012 348.029C978.207 348.029 978.304 347.893 978.402 347.757C978.5 347.621 978.597 347.485 978.793 347.485C978.988 347.213 979.183 347.077 979.378 346.941C979.574 346.805 979.769 346.669 979.964 346.397L980.745 345.31C980.745 344.766 981.136 344.766 981.136 344.766C981.377 344.766 981.47 344.558 981.597 344.271C981.676 344.094 981.768 343.886 981.917 343.678H982.308C982.308 343.134 982.698 342.591 983.089 342.591V342.047L1085.02 200.112C1081.12 199.024 1077.21 198.48 1072.92 198.48L942.081 198.48C940.128 198.48 937.785 198.48 935.832 199.024C934.995 199.024 934.157 199.18 933.38 199.325C932.707 199.451 932.079 199.568 931.536 199.568C930.95 199.84 930.462 199.976 929.974 200.112C929.485 200.248 928.997 200.384 928.411 200.656C928.021 200.927 927.533 201.063 927.044 201.199C926.556 201.335 926.068 201.471 925.677 201.743C922.944 202.831 920.21 204.462 917.476 206.093C915.731 206.903 914.203 208.015 912.569 209.203C912.008 209.611 911.435 210.027 910.836 210.444C910.446 210.988 910.055 211.532 909.665 211.532C906.15 214.795 902.635 218.601 899.901 222.952L898.729 224.583H898.339C898.339 225.127 897.948 225.671 897.558 225.671V226.215C897.408 226.422 897.259 226.551 897.132 226.66C896.926 226.838 896.777 226.966 896.777 227.302C896.777 227.302 896.777 227.846 896.386 227.846L895.605 228.934C895.41 229.206 895.312 229.478 895.214 229.749C895.117 230.021 895.019 230.293 894.824 230.565C894.824 230.837 894.726 230.973 894.628 231.109C894.531 231.245 894.433 231.381 894.433 231.653L894.043 232.197L891.699 237.091C891.309 237.635 890.918 238.179 890.918 238.722C890.332 240.082 889.746 241.578 889.161 243.073C888.575 244.569 887.989 246.064 887.403 247.423C886.817 249.327 886.329 251.23 885.841 253.133C885.353 255.037 884.865 256.94 884.279 258.843C884.279 259.659 884.181 260.339 884.084 261.019C883.986 261.698 883.888 262.378 883.888 263.194C883.693 263.738 883.595 264.417 883.498 265.097C883.4 265.777 883.302 266.457 883.107 267.001C882.912 268.088 882.814 269.176 882.717 270.264C882.619 271.351 882.521 272.439 882.326 273.526L882.326 290.385Z" fill="white"/>
<path d="M1125 0H1189.33V382H1168.04L1125 0Z" fill="white"/>
</svg>
