<svg width="245" height="90" viewBox="0 0 245 90" fill="none" xmlns="http://www.w3.org/2000/svg">
<g clip-path="url(#clip0_91_62)">
<path fill-rule="evenodd" clip-rule="evenodd" d="M11.077 24.9203H6.58826V44.1615H0V0.384033H6.58826V17.9184H11.077V0.384033H17.6646V44.1615H11.077V24.9203Z" fill="white"/>
<path fill-rule="evenodd" clip-rule="evenodd" d="M29.2148 44.7375H27.917C22.6084 44.7375 19.7773 41.8501 19.7773 36.4264V27.6435H26.3838V35.3071C26.3838 37.3112 27.0323 38.3715 28.5662 38.3715C30.1585 38.3715 30.7487 37.3112 30.7487 34.5993V33.5973C30.7487 30.474 30.4536 29.354 28.0357 26.23L23.7881 20.8071C20.9571 17.1522 20.1315 14.3231 20.1315 9.96117V8.54696C20.1315 2.71113 23.0799 0 28.3301 0H29.5689C35.0539 0 37.1774 2.41622 37.1774 7.60393V14.795H30.7487V8.48798C30.7487 7.0141 30.4536 5.89412 28.8607 5.89412C27.2684 5.89412 26.9143 6.89614 26.9143 8.95915V9.78491C26.9143 12.2608 27.3865 13.616 29.6273 16.5041L33.8742 21.986C36.8823 25.8761 37.8259 28.1168 37.8259 33.0672V34.4828C37.8259 40.9063 35.0539 44.7375 29.2148 44.7375Z" fill="white"/>
<path fill-rule="evenodd" clip-rule="evenodd" d="M54.948 0.384033V6.7382H46.5376V18.2128H53.1369V24.8621H46.5376V37.5129H55.298V44.1615H39.9375V0.384033H54.948Z" fill="white"/>
<path fill-rule="evenodd" clip-rule="evenodd" d="M72.5327 29.393L70.7434 13.2108L69.0144 29.393H72.5327ZM73.2474 35.9232H68.3587L67.4644 44.1615H61.4414L66.867 0.384033H74.8577L80.642 44.1615H74.1431L73.2474 35.9232Z" fill="white"/>
<path fill-rule="evenodd" clip-rule="evenodd" d="M88.3174 18.3888H90.0996C91.9412 18.3888 92.5357 17.2119 92.5357 15.2702V9.15088C92.5357 7.26812 92.1195 6.32673 90.0996 6.32673H88.3174V18.3888ZM88.3174 44.1615H81.6035V0.384033H92.4769C96.9324 0.384033 99.1901 2.2668 99.1901 7.15036V14.9169C99.1901 18.5654 97.4667 19.9771 96.2791 20.5071C97.764 21.154 99.1901 22.3316 99.1901 25.2729V40.6308C99.1901 42.3958 99.5462 43.2187 99.8441 43.8657V44.1615H93.189C92.8917 43.6904 92.5357 42.9257 92.5357 40.5719V27.3918C92.5357 25.4495 92.1797 24.6259 90.0401 24.6259H88.3174V44.1615Z" fill="white"/>
<path fill-rule="evenodd" clip-rule="evenodd" d="M112.334 6.7382V44.1615H105.784V6.7382H100.227V0.384033H117.891V6.7382H112.334Z" fill="white"/>
<path fill-rule="evenodd" clip-rule="evenodd" d="M133.207 29.393L131.418 13.2108L129.688 29.393H133.207ZM133.922 35.9232H129.032L128.138 44.1615H122.115L127.542 0.384033H135.531L141.316 44.1615H134.817L133.922 35.9232Z" fill="white"/>
<path fill-rule="evenodd" clip-rule="evenodd" d="M148.436 0.384033L154.11 23.8611V0.384033H160.133V44.1615H154.753L148.436 18.9769V44.1615H142.469V0.384033H148.436Z" fill="white"/>
<path fill-rule="evenodd" clip-rule="evenodd" d="M169.476 37.8059H171.066C173.068 37.8059 173.657 36.7475 173.657 34.3943V9.73968C173.657 7.20924 173.01 6.32673 171.36 6.32673H169.476V37.8059ZM162.822 0.384033H173.01C178.72 0.384033 180.487 3.61965 180.487 8.79829V35.4528C180.487 40.8067 178.485 44.1615 173.01 44.1615H162.822V0.384033Z" fill="white"/>
<path fill-rule="evenodd" clip-rule="evenodd" d="M6.65393 82.9278H8.24342C10.2454 82.9278 10.8346 81.8694 10.8346 79.5162V54.8612C10.8346 52.3314 10.1871 51.4482 8.53803 51.4482H6.65393V82.9278ZM0 45.5054H10.1871C15.8976 45.5054 17.6646 48.7417 17.6646 53.9191V80.5754C17.6646 85.9287 15.6626 89.2828 10.1871 89.2828H0V45.5054Z" fill="white"/>
<path fill-rule="evenodd" clip-rule="evenodd" d="M35.17 45.5054V51.8603H26.7602V63.3337H33.3596V69.9838H26.7602V82.6348H35.5207V89.2828H20.1602V45.5054H35.17Z" fill="white"/>
<path fill-rule="evenodd" clip-rule="evenodd" d="M46.3027 89.8588H45.0049C39.6963 89.8588 36.8652 86.9708 36.8652 81.5473V72.7654H43.4717V80.4281C43.4717 82.432 44.1202 83.493 45.6534 83.493C47.2464 83.493 47.8366 82.432 47.8366 79.721V78.719C47.8366 75.5951 47.5415 74.4752 45.1236 71.3512L40.876 65.9278C38.045 62.2737 37.2194 59.4454 37.2194 55.0843V53.6687C37.2194 47.8331 40.1678 45.1213 45.418 45.1213H46.6568C52.1418 45.1213 54.2653 47.5395 54.2653 52.725V59.9172H47.8366V53.6097C47.8366 52.1359 47.5415 51.016 45.9486 51.016C44.3563 51.016 44.0022 52.018 44.0022 54.0809V54.9066C44.0022 57.3818 44.4744 58.7383 46.7152 61.6256L50.9621 67.1067C53.9701 70.9974 54.9138 73.2372 54.9138 78.1889V79.6037C54.9138 86.0271 52.1418 89.8588 46.3027 89.8588Z" fill="white"/>
<mask id="mask0_91_62" style="mask-type:alpha" maskUnits="userSpaceOnUse" x="56" y="45" width="28" height="45">
<path d="M56.668 45.1396H83.6083V89.8177H56.668V45.1396Z" fill="white"/>
</mask>
<g mask="url(#mask0_91_62)">
<path fill-rule="evenodd" clip-rule="evenodd" d="M56.668 89.2708H63.3882V45.552H56.668V89.2708Z" fill="white"/>
<path fill-rule="evenodd" clip-rule="evenodd" d="M72.131 89.8587C68.2062 89.8587 65.709 86.3922 65.709 81.8672V54.5417C65.709 49.6653 67.6118 45.1396 73.975 45.1396H75.2828C82.4791 45.1396 83.3115 49.7822 83.3115 54.954V59.4202H76.7698V54.4829C76.7698 52.5445 76.2937 51.4868 74.6296 51.4868C73.2021 51.4868 72.5475 52.5445 72.5475 54.4829V80.0457C72.5475 82.1017 73.3799 83.1602 74.7479 83.1602C76.473 83.1602 77.2452 81.9848 77.2452 80.3391V69.4095H74.2124V62.7103H83.6083V89.2707H79.8026C79.7431 89.0355 79.2082 86.8619 78.6727 84.9816C78.1966 86.451 75.9367 89.8587 72.5475 89.8587H72.131Z" fill="white"/>
</g>
<path fill-rule="evenodd" clip-rule="evenodd" d="M91.7924 45.5054L97.4667 68.9821V45.5054H103.491V89.2828H98.1098L91.7924 64.0985V89.2828H85.8262V45.5054H91.7924Z" fill="white"/>
<path fill-rule="evenodd" clip-rule="evenodd" d="M120.992 89.8588H119.694C114.386 89.8588 111.555 86.9708 111.555 81.5473V72.7654H118.161V80.4281C118.161 82.432 118.81 83.493 120.344 83.493C121.936 83.493 122.525 82.432 122.525 79.721V78.719C122.525 75.5951 122.231 74.4752 119.812 71.3512L115.565 65.9278C112.734 62.2737 111.909 59.4454 111.909 55.0843V53.6687C111.909 47.8331 114.858 45.1213 120.107 45.1213H121.346C126.831 45.1213 128.955 47.5395 128.955 52.725V59.9172H122.525V53.6097C122.525 52.1359 122.231 51.016 120.638 51.016C119.046 51.016 118.692 52.018 118.692 54.0809V54.9066C118.692 57.3818 119.164 58.7383 121.405 61.6256L125.652 67.1067C128.66 70.9974 129.603 73.2372 129.603 78.1889V79.6037C129.603 86.0271 126.831 89.8588 120.992 89.8588Z" fill="white"/>
<path fill-rule="evenodd" clip-rule="evenodd" d="M142.318 80.4405V70.2571H148.805V80.3816C148.805 85.0918 147.285 89.8588 140.916 89.8588H139.454C132.792 89.8588 131.332 85.0322 131.332 80.6179V53.8924C131.332 49.4199 133.26 45.1213 139.221 45.1213H140.74C147.987 45.1213 148.805 49.9493 148.805 54.2465V62.0744H142.318V54.3636C142.318 52.4801 141.734 51.4794 140.098 51.4794C138.461 51.4794 138.052 52.4219 138.052 54.3636V80.3816C138.052 82.324 138.695 83.3836 140.156 83.3836C141.734 83.3836 142.318 82.2062 142.318 80.4405Z" fill="white"/>
<path fill-rule="evenodd" clip-rule="evenodd" d="M161.992 70.0427H157.504V89.2828H150.916V45.5054H157.504V63.04H161.992V45.5054H168.581V89.2828H161.992V70.0427Z" fill="white"/>
<path fill-rule="evenodd" clip-rule="evenodd" d="M182.53 54.8348C182.53 52.539 181.763 51.4794 180.228 51.4794C178.517 51.4794 177.866 52.5986 177.866 54.8348V80.0289C177.866 81.9124 178.398 83.3836 180.287 83.3836C182.058 83.3836 182.53 81.9124 182.53 80.0289V54.8348ZM189.319 79.5583C189.319 85.6794 187.252 89.8588 180.818 89.8588H179.696C173.321 89.8588 171.078 85.6794 171.078 79.5583V55.1876C171.078 49.1247 173.38 45.1213 179.637 45.1213H180.759C187.252 45.1213 189.319 49.1247 189.319 55.1287V79.5583Z" fill="white"/>
<path fill-rule="evenodd" clip-rule="evenodd" d="M202.691 54.8348C202.691 52.539 201.923 51.4794 200.388 51.4794C198.676 51.4794 198.027 52.5986 198.027 54.8348V80.0289C198.027 81.9124 198.558 83.3836 200.446 83.3836C202.218 83.3836 202.691 81.9124 202.691 80.0289V54.8348ZM209.479 79.5583C209.479 85.6794 207.413 89.8588 200.978 89.8588H199.856C193.481 89.8588 191.238 85.6794 191.238 79.5583V55.1876C191.238 49.1247 193.54 45.1213 199.797 45.1213H200.92C207.413 45.1213 209.479 49.1247 209.479 55.1287V79.5583Z" fill="white"/>
<path fill-rule="evenodd" clip-rule="evenodd" d="M218.631 45.5054V82.5164H226.759V89.2828H211.975V45.5054H218.631Z" fill="white"/>
</g>
<defs>
<clipPath id="clip0_91_62">
<rect width="245" height="89.8589" fill="white"/>
</clipPath>
</defs>
</svg>
