<svg width="1031" height="278" viewBox="0 0 1031 278" fill="none" xmlns="http://www.w3.org/2000/svg">
<path d="M1015.79 1.70304e-05L1031 1.84706e-05L1031 265.027H1031V278H983.105V265.027H1015.79L1015.79 133.042L836 133.042L836 0L922.152 8.1604e-06L991.18 87.7683C993.321 90.5483 997.601 92.534 1002.42 92.534C1009.91 92.534 1015.79 88.1655 1015.79 82.6055L1015.79 1.70304e-05Z" fill="white"/>
<path d="M627 278L717.266 278L717.266 124.517C700.427 122.003 687.283 106.916 687.283 88.4775C687.283 68.3623 703.712 52.0187 723.427 52.0187C743.142 52.0187 759.16 68.3623 759.16 88.4775C759.16 106.916 746.427 122.003 729.177 124.517L729.177 278L822 278L822 9.19605e-07L627 -1.61278e-05L627 278Z" fill="white"/>
<path d="M613 0H418V278H613V225.227H439.309C434.895 225.227 431.317 221.173 431.317 216.172V61.8286C431.317 56.8275 434.895 52.7733 439.309 52.7733H613V0Z" fill="white"/>
<path fill-rule="evenodd" clip-rule="evenodd" d="M404 0H209V278H404V0ZM229.26 52.773C224.598 52.773 220.818 56.9921 220.818 62.1967V215.803C220.818 221.008 224.598 225.227 229.26 225.227H383.74C388.402 225.227 392.182 221.008 392.182 215.803V62.1967C392.182 56.9921 388.402 52.773 383.74 52.773H229.26Z" fill="white"/>
<path d="M0 0.000237145V278H23.3915L23.3915 116.239C23.3918 107.282 31.5876 100.02 41.6977 100.02C51.8078 100.02 60.0037 107.282 60.0039 116.239L60.0039 278L195 278V0L0 0.000237145Z" fill="white"/>
</svg>
