<svg width="275" height="393" viewBox="0 0 275 393" fill="none" xmlns="http://www.w3.org/2000/svg">
<path d="M75.1096 1.02653e-05L2.19768e-05 0L0 393L275 393L275 2.2176e-05L197.763 1.16199e-05L197.763 212.314C220.54 213.984 238.506 233.205 238.506 256.671C238.506 281.233 218.822 301.145 194.54 301.145C182.813 301.145 172.158 296.5 164.275 288.93C162.937 287.925 161.748 286.67 160.737 285.111C154.392 277.401 150.575 267.487 150.575 256.671C150.575 235.288 165.492 217.43 185.374 213.165C186.19 212.898 187.016 212.675 187.852 212.497L187.852 1.02653e-05L85.0205 1.16199e-05L85.0205 212.248C85.7081 212.353 86.39 212.488 87.0656 212.653C108.354 215.752 124.713 234.279 124.713 256.671C124.713 281.233 105.029 301.145 80.7471 301.145C56.4656 301.145 36.7816 281.233 36.7816 256.671C36.7816 234.041 53.4906 215.358 75.1095 212.559L75.1096 1.02653e-05Z" fill="#FF0000"/>
</svg>
