<svg width="195" height="279" viewBox="0 0 195 279" fill="none" xmlns="http://www.w3.org/2000/svg">
<path d="M53.2595 0.621589L1.55835e-05 0.621582L0 278.622L195 278.622L195 0.621598L140.232 0.62159L140.232 150.808C156.383 151.989 169.122 165.586 169.122 182.185C169.122 199.56 155.164 213.645 137.947 213.645C129.631 213.645 122.076 210.36 116.486 205.005C115.537 204.294 114.694 203.406 113.977 202.303C109.478 196.85 106.771 189.836 106.771 182.185C106.771 167.06 117.349 154.427 131.447 151.41C132.026 151.221 132.612 151.064 133.204 150.938L133.204 0.621589L60.2873 0.62159L60.2873 150.762C60.7748 150.836 61.2584 150.931 61.7375 151.048C76.8325 153.24 88.4326 166.346 88.4326 182.185C88.4326 199.56 74.4748 213.645 57.2571 213.645C40.0393 213.645 26.0815 199.56 26.0815 182.185C26.0815 166.177 37.9297 152.961 53.2595 150.981L53.2595 0.621589Z" fill="#F40000"/>
</svg>
