<svg width="129" height="175" viewBox="0 0 129 175" fill="none" xmlns="http://www.w3.org/2000/svg">
<path d="M35.7795 4.57107e-06L1.04689e-05 0L0 175L131 175L131 9.87479e-06L94.207 5.17424e-06L94.207 94.542C105.057 95.2853 113.615 103.844 113.615 114.294C113.615 125.231 104.239 134.098 92.6719 134.098C87.0855 134.098 82.0099 132.029 78.2548 128.659C77.6171 128.211 77.0509 127.652 76.5695 126.958C73.5466 123.525 71.7283 119.11 71.7283 114.294C71.7283 104.772 78.8344 96.8201 88.3053 94.9207C88.6941 94.8021 89.0878 94.7028 89.4858 94.6236L89.4858 4.57107e-06L40.5007 5.17424e-06L40.5007 94.5126C40.8282 94.5592 41.153 94.6193 41.4749 94.6926C51.6157 96.0727 59.4086 104.323 59.4086 114.294C59.4086 125.231 50.0318 134.098 38.465 134.098C26.8982 134.098 17.5214 125.231 17.5214 114.294C17.5214 104.217 25.481 95.8974 35.7795 94.6509L35.7795 4.57107e-06Z" fill="white"/>
</svg>
