<svg width="845" height="394" viewBox="0 0 845 394" fill="none" xmlns="http://www.w3.org/2000/svg">
<path d="M538.557 1.05032L560 1.05032L560 375.654L560 393.991H492.456V375.654H538.557L538.557 189.1L285 189.1L285 1.05029L406.496 1.0503L503.844 125.107C506.862 129.036 512.899 131.843 519.691 131.843C530.256 131.843 538.557 125.668 538.557 117.81L538.557 1.05032Z" fill="white"/>
<path d="M843.81 1.05029H696.195V388.778H718.351L718.351 209.55C718.351 197.056 726.114 186.928 735.691 186.928C745.267 186.928 753.03 197.056 753.03 209.55V394H845L843.81 1.05029Z" fill="white"/>
<path d="M570 1.05029H717.87V392.606H695.495L695.495 211.149C695.495 198.532 687.655 188.304 677.984 188.304C668.313 188.304 660.473 198.532 660.473 211.149L660.473 392.606H570V1.05029Z" fill="white"/>
<path d="M75.1096 1.02638e-05L2.19768e-05 0L0 392.941L275 392.941L275 2.21726e-05L197.763 1.16181e-05L197.763 212.283C220.54 213.951 238.506 233.17 238.506 256.632C238.506 281.191 218.822 301.1 194.54 301.1C182.813 301.1 172.158 296.456 164.275 288.887C162.937 287.882 161.748 286.627 160.737 285.068C154.392 277.36 150.575 267.447 150.575 256.632C150.575 235.253 165.492 217.398 185.374 213.133C186.19 212.866 187.016 212.643 187.852 212.466L187.852 1.02638e-05L85.0205 1.16181e-05L85.0205 212.217C85.7081 212.321 86.39 212.456 87.0656 212.621C108.354 215.719 124.713 234.244 124.713 256.632C124.713 281.191 105.029 301.1 80.7471 301.1C56.4656 301.1 36.7816 281.191 36.7816 256.632C36.7816 234.006 53.4906 215.326 75.1095 212.527L75.1096 1.02638e-05Z" fill="white"/>
</svg>
