<svg width="1146" height="394" viewBox="0 0 1146 394" fill="none" xmlns="http://www.w3.org/2000/svg">
<path d="M275 0H0V392H275V317.587H30.051C23.8265 317.587 18.7805 311.87 18.7805 304.818V87.1828C18.7805 80.1309 23.8265 74.4141 30.051 74.4141H275V0Z" fill="white"/>
<path fill-rule="evenodd" clip-rule="evenodd" d="M467.26 392H295.443V0H467.26C523.765 0 570.443 42.56 570.443 94.08C570.443 146.16 523.765 188.16 467.26 188.16H311.123V204.4H467.26C523.765 204.4 570.443 246.4 570.443 298.48C570.443 350 523.765 392 467.26 392ZM311.123 220.64H467.26C513.938 220.64 552.017 255.36 552.017 298.48C552.017 341.04 513.938 375.76 467.26 375.76C419.967 375.76 381.888 341.04 381.888 298.48V236.88H311.123V220.64ZM311.123 171.92H467.26C513.938 171.92 552.017 137.2 552.017 94.08C552.017 51.52 513.938 16.8 467.26 16.8C419.967 16.8 381.888 51.52 381.888 94.08V155.68H311.123V171.92Z" fill="white"/>
<path d="M1044.9 393.588H1065.94V216.522L1065.68 206.07L1065.94 112.649H1145.27L1145.44 98.9293L1145.18 1.58838H870.443L870.704 112.649H1044.9V251.845V393.588Z" fill="white"/>
<path d="M582.943 392V0H604.852V0.0027128H857.943V70.6976H604.852V112.357H857.943V121.194H604.852V182.348H604.59V228.091C604.59 229.467 604.68 230.815 604.853 232.125C604.806 232.65 604.782 233.182 604.782 233.72C604.782 243.255 612.308 250.984 621.592 250.984C630.876 250.984 638.402 243.255 638.402 233.72C638.402 232.999 638.359 232.288 638.276 231.59C638.405 230.449 638.473 229.281 638.473 228.091L638.473 193.152H857.943V392H582.943Z" fill="white"/>
</svg>
