<svg width="3230" height="436" viewBox="0 0 3230 436" fill="none" xmlns="http://www.w3.org/2000/svg">
<path d="M1181.36 133.699C1181.31 133.989 1181.22 134.994 1181.09 136.576V133.699H1181.36Z" fill="white"/>
<path d="M1181.36 133.699H1181.39C1181.39 133.582 1181.38 133.585 1181.36 133.699Z" fill="white"/>
<path fill-rule="evenodd" clip-rule="evenodd" d="M1327.7 292.016V401.568L1457.37 401.568V0.0516489L1181.4 0.0516357L1181.4 133.699H1181.39C1181.4 133.752 1181.4 133.828 1181.4 133.93V401.568H1311.06V292.016H1327.7ZM1327.7 257.135V183.028C1351.8 179.587 1369.58 158.937 1369.58 133.699C1369.58 106.167 1347.21 83.7964 1319.67 83.7964C1292.13 83.7964 1269.18 106.167 1269.18 133.699C1269.18 158.937 1287.54 179.587 1311.06 183.028V257.135H1327.7Z" fill="white"/>
<path d="M276.273 0.0516357H148.385V221.727C172.243 225.359 190.864 247.148 190.864 273.78C190.864 302.832 167.588 326.437 139.657 326.437C111.725 326.437 89.0311 302.832 89.0311 273.78C89.0311 247.148 107.07 225.359 131.51 221.727V0.0516357H0V401.568H276.273V0.0516357Z" fill="white"/>
<path d="M1476.37 0.0519783V401.568H1509.51L1509.51 167.936C1509.51 154.999 1521.12 144.511 1535.44 144.511C1549.77 144.511 1561.38 154.999 1561.38 167.936L1561.38 401.568L1752.64 401.568V0.0516357L1476.37 0.0519783Z" fill="white"/>
<path d="M1772 0.00034251V401.516H1805.14L1805.14 167.884C1805.14 154.947 1816.75 144.459 1831.08 144.459C1845.4 144.459 1857.01 154.947 1857.01 167.884L1857.01 401.516L2048.27 401.516V0L1772 0.00034251Z" fill="white"/>
<path d="M295.273 401.568H443.358V195.327H443.367C443.89 159.868 467.887 131.318 497.414 131.318C526.94 131.318 550.937 159.868 551.46 195.327H551.469V401.568H571.546V0.0516357H551.466V103.008H443.355V0.0516357H295.273V401.568Z" fill="white"/>
<path d="M1061.09 401.568H1082.22V220.203L1081.96 209.497L1082.22 113.808H1161.92L1162.09 99.7557L1161.83 0.0516357H885.82L886.083 113.808H1061.09V256.383V401.568Z" fill="white"/>
<path d="M866.819 0.0516357H590.547V401.568H866.819V325.348H620.737C614.484 325.348 609.414 319.493 609.414 312.27V89.3509C609.414 82.1277 614.484 76.2722 620.737 76.2722H866.819V0.0516357Z" fill="white"/>
<path d="M2933.82 0.0516357H2805.93V221.727C2829.79 225.359 2848.41 247.148 2848.41 273.78C2848.41 302.832 2825.13 326.437 2797.2 326.437C2769.27 326.437 2746.58 302.832 2746.58 273.78C2746.58 247.148 2764.62 225.359 2789.06 221.727V0.0516357H2657.55V401.568H2933.82V0.0516357Z" fill="white"/>
<path fill-rule="evenodd" clip-rule="evenodd" d="M2067 92.2874C2067 41.347 2106.6 0.0516357 2155.46 0.0516357H2343.27L2343.27 399.319H2321.46V207.835L2140.2 401.568H2114.15L2314.8 184.524H2321.46L2155.46 184.523C2106.6 184.523 2067 143.228 2067 92.2874ZM2264.51 164.634V113.031C2264.51 98.7825 2275.59 87.2316 2289.25 87.2316C2302.92 87.2316 2314 98.7825 2314 113.031V164.634H2264.51Z" fill="white"/>
<path fill-rule="evenodd" clip-rule="evenodd" d="M2952.82 92.2874C2952.82 41.347 2992.42 0.0516357 3041.28 0.0516357H3229.09L3229.09 399.319H3207.28V207.835L3026.02 401.568H2999.97L3200.62 184.524H3207.28L3041.28 184.523C2992.42 184.523 2952.82 143.228 2952.82 92.2874ZM3150.33 164.634V113.031C3150.33 98.7825 3161.41 87.2316 3175.07 87.2316C3188.74 87.2316 3199.82 98.7825 3199.82 113.031V164.634H3150.33Z" fill="white"/>
<path d="M2489.94 0.0516472L2362.27 0.0516357L2362.27 403.63H2613.86V435.948H2638.55V339.982H2638.08L2638.08 0.0516606L2506.79 0.0516488L2506.79 222.866C2531.19 226.516 2549.2 248.417 2549.2 275.185C2549.2 304.387 2526.54 328.113 2498.66 328.113C2470.77 328.113 2447.54 304.387 2447.54 275.185C2447.54 248.417 2466.13 226.516 2489.94 222.866L2489.94 0.0516472Z" fill="white"/>
</svg>
