<svg width="2163" height="279" viewBox="0 0 2163 279" fill="none" xmlns="http://www.w3.org/2000/svg">
<path d="M791.138 85.9098C791.105 86.0958 791.046 86.7421 790.961 87.7586V85.9098H791.138Z" fill="white"/>
<path d="M791.138 85.9098H791.162C791.159 85.8348 791.15 85.8366 791.138 85.9098Z" fill="white"/>
<path fill-rule="evenodd" clip-rule="evenodd" d="M889.142 187.639V258.033L975.977 258.033V0.0327233L791.165 0.0327148L791.165 85.9098H791.162C791.164 85.9436 791.165 85.9929 791.165 86.0582V258.033H878V187.639H889.142ZM889.142 165.226V117.607C905.28 115.396 917.191 102.127 917.191 85.9098C917.191 68.2184 902.206 53.8441 883.763 53.8441C865.32 53.8441 849.951 68.2184 849.951 85.9098C849.951 102.127 862.247 115.396 878 117.607V165.226H889.142Z" fill="white"/>
<path d="M185.016 0.0327148H99.3714V142.474C115.349 144.807 127.819 158.808 127.819 175.921C127.819 194.589 112.231 209.756 93.5261 209.756C74.8208 209.756 59.6229 194.589 59.6229 175.921C59.6229 158.808 71.7033 144.807 88.0704 142.474V0.0327148H0V258.033H185.016V0.0327148Z" fill="white"/>
<path d="M988.701 0.0329349V258.033H1010.9L1010.9 107.909C1010.9 99.5961 1018.67 92.8571 1028.26 92.8571C1037.86 92.8571 1045.63 99.5961 1045.63 107.909L1045.63 258.033L1173.72 258.033V0.0327148L988.701 0.0329349Z" fill="white"/>
<path d="M1186.68 0.000220085V258H1208.88L1208.88 107.877C1208.88 99.5634 1216.65 92.8243 1226.25 92.8243C1235.84 92.8243 1243.62 99.5634 1243.62 107.877L1243.62 258L1371.7 258V0L1186.68 0.000220085Z" fill="white"/>
<path d="M197.74 258.033H296.91V125.51H296.916C297.267 102.725 313.337 84.3799 333.111 84.3799C352.884 84.3799 368.955 102.725 369.305 125.51H369.311V258.033H382.756V0.0327148H369.309V66.1889H296.908V0.0327148H197.74V258.033Z" fill="white"/>
<path d="M710.596 258.033H724.749V141.494L724.572 134.615L724.749 73.1284H778.12L778.237 64.099L778.06 0.0327148H593.221L593.397 73.1284H710.596V164.742V258.033Z" fill="white"/>
<path d="M580.496 0.0327148H395.48V258.033H580.496V209.057H415.698C411.511 209.057 408.116 205.294 408.116 200.653V57.4132C408.116 52.7719 411.511 49.0093 415.698 49.0093H580.496V0.0327148Z" fill="white"/>
<path d="M1965 0H1879.36V142.441C1895.34 144.774 1907.81 158.775 1907.81 175.888C1907.81 194.556 1892.22 209.724 1873.52 209.724C1854.81 209.724 1839.62 194.556 1839.62 175.888C1839.62 158.775 1851.7 144.774 1868.06 142.441V0H1780V258H1965V0Z" fill="white"/>
<path fill-rule="evenodd" clip-rule="evenodd" d="M1384.24 59.3002C1384.24 26.5676 1410.76 0.0327148 1443.48 0.0327148H1569.26L1569.26 256.588H1554.65V133.547L1433.26 258.033H1415.81L1550.19 118.568H1554.65L1443.48 118.568C1410.76 118.568 1384.24 92.0327 1384.24 59.3002ZM1516.51 105.787V72.6295C1516.51 63.4736 1523.93 56.0515 1533.08 56.0515C1542.23 56.0515 1549.65 63.4736 1549.65 72.6295V105.787H1516.51Z" fill="white"/>
<path fill-rule="evenodd" clip-rule="evenodd" d="M1977.46 59.3002C1977.46 26.5676 2003.98 0.0327148 2036.7 0.0327148H2162.48L2162.48 256.588H2147.87V133.547L2026.48 258.033H2009.03L2143.41 118.568H2147.87L2036.7 118.568C2003.98 118.568 1977.46 92.0327 1977.46 59.3002ZM2109.73 105.787V72.6295C2109.73 63.4736 2117.15 56.0515 2126.3 56.0515C2135.45 56.0515 2142.87 63.4736 2142.87 72.6295V105.787H2109.73Z" fill="white"/>
<path d="M1667.48 0.0327222L1581.98 0.0327148L1581.98 257.421H1750.46V278.033H1767V216.828H1766.68L1766.68 0.0327307L1678.76 0.0327231L1678.76 142.136C1695.1 144.464 1707.16 158.432 1707.16 175.503C1707.16 194.127 1691.99 209.259 1673.32 209.259C1654.64 209.259 1639.08 194.127 1639.08 175.503C1639.08 158.432 1651.53 144.464 1667.48 142.136L1667.48 0.0327222Z" fill="white"/>
</svg>
