<svg width="595" height="192" viewBox="0 0 595 192" fill="none" xmlns="http://www.w3.org/2000/svg">
<path d="M288.333 0.000162931V191H304.827L304.827 79.8621C304.827 73.7078 310.606 68.7188 317.735 68.7188C324.864 68.7188 330.643 73.7078 330.643 79.8621L330.643 191L425.833 191V0L288.333 0.000162931Z" fill="white"/>
<path d="M143.964 63.5757C143.94 63.7134 143.896 64.1918 143.833 64.9443V63.5757H143.964Z" fill="white"/>
<path d="M143.964 63.5757H143.982C143.979 63.5201 143.973 63.5215 143.964 63.5757Z" fill="white"/>
<path fill-rule="evenodd" clip-rule="evenodd" d="M216.799 138.887V191L281.333 191V6.27358e-06L143.984 0L143.984 63.5757H143.982C143.984 63.6007 143.984 63.6372 143.984 63.6856V191H208.518V138.887H216.799ZM216.799 122.294V87.0414C228.792 85.4043 237.644 75.5814 237.644 63.5757C237.644 50.4786 226.507 39.8371 212.801 39.8371C199.095 39.8371 187.673 50.4786 187.673 63.5757C187.673 75.5814 196.811 85.4043 208.518 87.0414V122.294H216.799Z" fill="white"/>
<path d="M100.102 100.114L7.00019 100.645V92.6907L100.102 92.16C120.764 92.16 137.833 71.5886 137.833 46.08C137.833 20.8457 120.764 0 100.102 0H18.1278C-0.131822 0 0.104797 16.6945 0.406666 37.9927C0.446382 40.7949 0.487227 43.6767 0.487227 46.6107V76.4661L3.03194 76.4878H55.6492V43.9911H55.8954C58.0711 24.9859 74.4027 10.2173 94.2268 10.2173C115.533 10.2173 132.804 27.2761 132.804 48.3193C132.804 60.4929 127.024 71.3332 118.026 78.3086C114.961 80.9 111.501 82.8515 107.779 84.0038C104.525 85.2098 101.063 85.9941 97.4596 86.2894V86.4213H0.487227V107.423H100.05C109.62 107.534 118.176 112.797 123.929 121.041C129.558 127.663 132.948 136.203 132.948 145.525C132.948 153.326 130.575 160.578 126.503 166.618C120.876 177.356 110.993 184.479 99.7418 184.479C97.2885 184.479 94.6699 184.161 91.982 183.556C73.2479 182.425 58.1266 168.09 56.0389 149.854H55.7928V117.672L18.9654 117.357H0.620437V117.2L0.487227 117.199V146.725C0.487227 149.674 0.445965 152.552 0.40606 155.335C0.104489 176.37 -0.119607 192 18.1278 192H100.102C120.764 192 137.833 171.429 137.833 146.194C137.833 120.686 120.764 100.114 100.102 100.114Z" fill="white"/>
<path fill-rule="evenodd" clip-rule="evenodd" d="M487.506 0.266363L439.814 0.266374L435.833 0.266369L435.833 140.842C435.833 168.304 451.65 190.601 471.373 190.601L536.595 190.601C556.318 190.601 572.526 168.032 572.331 140.57C572.331 127.79 568.816 116.098 562.958 107.125C558.857 100.872 553.584 96.2492 547.531 93.5301C544.211 92.1706 540.501 91.3549 536.79 91.3549L471.568 91.3549C469.03 91.3549 467.663 87.0044 469.42 84.5572L530.151 0.266357L487.506 0.266363ZM441.496 145.192C441.587 145.702 441.636 146.212 441.682 146.694C441.734 147.24 441.782 147.75 441.886 148.183C441.984 148.591 442.033 148.931 442.081 149.271C442.13 149.611 442.179 149.951 442.277 150.359C442.277 150.63 442.325 150.97 442.374 151.31C442.423 151.65 442.472 151.99 442.472 152.262C442.765 153.214 443.009 154.165 443.253 155.117C443.497 156.069 443.741 157.02 444.034 157.972C444.327 158.788 444.62 159.535 444.913 160.283C445.206 161.031 445.499 161.779 445.792 162.594C445.792 162.866 445.987 163.138 446.182 163.41C446.573 164.226 446.963 165.041 447.354 165.585C447.354 165.721 447.403 165.789 447.451 165.857C447.5 165.925 447.549 165.993 447.549 166.129L447.744 166.401C447.842 166.537 447.891 166.673 447.94 166.809C447.988 166.945 448.037 167.081 448.135 167.217C448.33 167.489 448.525 167.761 448.525 168.032H448.721C448.721 168.304 448.916 168.576 449.111 168.576V168.848C449.186 168.952 449.261 169.016 449.324 169.071C449.427 169.16 449.502 169.224 449.502 169.392C449.697 169.392 449.697 169.664 449.697 169.664L450.674 171.023C450.674 171.023 450.869 171.023 450.869 171.295C450.99 171.295 451.036 171.399 451.099 171.543C451.139 171.631 451.185 171.735 451.259 171.839H451.455C451.455 172.111 451.65 172.383 451.845 172.383V172.655C452.04 172.655 452.236 172.927 452.431 173.199C452.529 173.334 452.626 173.403 452.724 173.471C452.822 173.539 452.919 173.606 453.017 173.742L453.212 174.014C453.31 174.014 453.359 174.082 453.407 174.15C453.456 174.218 453.505 174.286 453.603 174.286C453.993 174.83 454.579 175.374 455.165 175.918C455.36 176.19 455.555 176.461 455.751 176.461C456.337 176.869 456.874 177.277 457.41 177.685C457.948 178.093 458.485 178.501 459.07 178.909C459.754 179.317 460.437 179.656 461.121 179.996C461.804 180.336 462.488 180.676 463.171 181.084C463.367 181.084 463.611 181.152 463.855 181.22C464.099 181.288 464.343 181.356 464.538 181.356C464.831 181.492 465.075 181.56 465.319 181.628C465.563 181.696 465.807 181.764 466.1 181.9C466.412 182.044 466.778 182.112 467.17 182.184C467.516 182.248 467.882 182.316 468.248 182.443H474.302C474.693 182.307 475.083 182.24 475.474 182.172C475.864 182.104 476.255 182.036 476.645 181.9C476.841 181.764 477.085 181.696 477.329 181.628C477.573 181.56 477.817 181.492 478.012 181.356C478.305 181.356 478.549 181.288 478.793 181.22C479.037 181.152 479.282 181.084 479.574 181.084C480.258 180.676 480.941 180.336 481.625 179.996C482.308 179.656 482.992 179.317 483.675 178.909C484.163 178.501 484.7 178.093 485.237 177.685C485.774 177.277 486.311 176.869 486.8 176.461C486.995 176.461 487.19 176.19 487.386 175.918L489.143 174.286L489.338 174.014C489.436 174.014 489.485 173.946 489.534 173.878C489.582 173.81 489.631 173.742 489.729 173.742C489.826 173.606 489.924 173.539 490.022 173.471C490.119 173.403 490.217 173.335 490.315 173.199L490.705 172.655C490.705 172.383 490.9 172.383 490.9 172.383C491.021 172.383 491.067 172.279 491.131 172.136C491.17 172.047 491.216 171.943 491.291 171.839H491.486C491.486 171.567 491.682 171.295 491.877 171.295V171.023L542.844 100.056C540.891 99.5121 538.938 99.2402 536.79 99.2402L471.373 99.2402C470.396 99.2402 469.225 99.2402 468.248 99.5121C467.83 99.5121 467.411 99.5902 467.023 99.6626C466.686 99.7254 466.372 99.784 466.1 99.784C465.807 99.9199 465.563 99.9879 465.319 100.056C465.075 100.124 464.831 100.192 464.538 100.328C464.343 100.464 464.099 100.532 463.855 100.6C463.611 100.668 463.366 100.736 463.171 100.872C461.804 101.415 460.437 102.231 459.071 103.047C458.198 103.452 457.434 104.007 456.617 104.602C456.337 104.805 456.05 105.014 455.751 105.222C455.555 105.494 455.36 105.766 455.165 105.766C453.407 107.397 451.65 109.301 450.283 111.476L449.697 112.292H449.502C449.502 112.564 449.307 112.835 449.111 112.835V113.107C449.037 113.211 448.962 113.275 448.898 113.33C448.795 113.419 448.721 113.483 448.721 113.651C448.721 113.651 448.721 113.923 448.525 113.923L448.135 114.467C448.037 114.603 447.988 114.739 447.94 114.875C447.891 115.011 447.842 115.147 447.744 115.283C447.744 115.419 447.696 115.487 447.647 115.555C447.598 115.623 447.549 115.69 447.549 115.826L447.354 116.098L446.182 118.546C445.987 118.817 445.792 119.089 445.792 119.361C445.499 120.041 445.206 120.789 444.913 121.537C444.62 122.284 444.327 123.032 444.034 123.712C443.741 124.663 443.497 125.615 443.253 126.567C443.009 127.518 442.765 128.47 442.472 129.422C442.472 129.83 442.423 130.169 442.374 130.509C442.325 130.849 442.277 131.189 442.277 131.597C442.179 131.869 442.13 132.209 442.081 132.549C442.033 132.889 441.984 133.228 441.886 133.5C441.788 134.044 441.74 134.588 441.691 135.132C441.642 135.676 441.593 136.219 441.496 136.763L441.496 145.192Z" fill="white"/>
<path d="M562.833 0H594.998V191H584.353L562.833 0Z" fill="white"/>
</svg>
