<svg width="299" height="96" viewBox="0 0 299 96" fill="none" xmlns="http://www.w3.org/2000/svg">
<path d="M144.999 8.14654e-05V95.5H153.246L153.246 39.9311C153.246 36.8539 156.135 34.3594 159.7 34.3594C163.264 34.3594 166.154 36.8539 166.154 39.9311L166.154 95.5L213.749 95.4999V0L144.999 8.14654e-05Z" fill="white"/>
<path d="M72.8144 31.7879C72.8025 31.8567 72.7804 32.0959 72.7488 32.4722V31.7879H72.8144Z" fill="white"/>
<path d="M72.8144 31.7879H72.8237C72.8222 31.7601 72.8191 31.7607 72.8144 31.7879Z" fill="white"/>
<path fill-rule="evenodd" clip-rule="evenodd" d="M109.232 69.4433V95.5L141.499 95.5V3.13679e-06L72.8247 0L72.8247 31.7879H72.8237C72.8243 31.8003 72.8247 31.8186 72.8247 31.8428V95.5H105.092V69.4433H109.232ZM109.232 61.147V43.5207C115.228 42.7021 119.654 37.7907 119.654 31.7879C119.654 25.2393 114.086 19.9186 107.233 19.9186C100.38 19.9186 94.669 25.2393 94.669 31.7879C94.669 37.7907 99.2378 42.7021 105.092 43.5207V61.147H109.232Z" fill="white"/>
<path d="M50.8835 50.0571L4.33261 50.3225V46.3453L50.8835 46.08C61.2145 46.08 69.7488 35.7943 69.7488 23.04C69.7488 10.4229 61.2145 0 50.8835 0H9.89641C0.766608 0 0.884918 8.34726 1.03585 18.9964C1.05571 20.3974 1.07613 21.8384 1.07613 23.3053V38.2331L2.34849 38.2439H28.6571V21.9956H28.7802C29.868 12.493 38.0339 5.10865 47.9459 5.10865C58.5988 5.10865 67.2347 13.6381 67.2347 24.1596C67.2347 30.2465 64.3445 35.6666 59.8456 39.1543C58.3128 40.45 56.5831 41.4257 54.7221 42.0019C53.0952 42.6049 51.3639 42.9971 49.5623 43.1447V43.2106H1.07613V53.7116H50.8573C55.6423 53.767 59.9203 56.3987 62.7973 60.5204C65.6116 63.8313 67.3065 68.1015 67.3065 72.7627C67.3065 76.6628 66.1199 80.2891 64.0839 83.3088C61.2705 88.6778 56.3292 92.2393 50.7034 92.2393C49.4768 92.2393 48.1675 92.0804 46.8235 91.7778C37.4565 91.2127 29.8958 84.045 28.852 74.9268H28.7289V58.8358L10.3152 58.6785H1.14274V58.6001L1.07613 58.5996V73.3625C1.07613 74.8369 1.0555 76.2759 1.03555 77.6676C0.884764 88.1848 0.772716 96 9.89641 96H50.8835C61.2145 96 69.7488 85.7143 69.7488 73.0971C69.7488 60.3429 61.2145 50.0571 50.8835 50.0571Z" fill="white"/>
<path fill-rule="evenodd" clip-rule="evenodd" d="M244.585 0.133059L220.74 0.133065L218.749 0.133062L218.749 70.4208C218.749 84.152 226.657 95.3002 236.519 95.3002L269.13 95.3002C278.992 95.3002 287.096 84.0161 286.998 70.2848C286.998 63.895 285.24 58.049 282.311 53.5626C280.261 50.4357 277.625 48.1245 274.598 46.7649C272.938 46.0852 271.083 45.6773 269.228 45.6773L236.617 45.6773C235.347 45.6773 234.664 43.5021 235.543 42.2785L265.908 0.133057L244.585 0.133059ZM221.58 72.596C221.626 72.851 221.65 73.106 221.673 73.347C221.699 73.6199 221.724 73.8749 221.776 74.0915C221.824 74.2955 221.849 74.4654 221.873 74.6354C221.898 74.8053 221.922 74.9752 221.971 75.1792C221.971 75.3151 221.995 75.485 222.02 75.655C222.044 75.8249 222.068 75.9949 222.068 76.1308C222.215 76.6067 222.337 77.0825 222.459 77.5583C222.581 78.0342 222.703 78.51 222.85 78.9858C222.996 79.3937 223.143 79.7676 223.289 80.1415C223.435 80.5153 223.582 80.8892 223.728 81.297C223.728 81.433 223.826 81.5689 223.924 81.7049C224.119 82.1128 224.314 82.5206 224.509 82.7925C224.509 82.8605 224.534 82.8945 224.558 82.9285C224.583 82.9625 224.607 82.9964 224.607 83.0644L224.705 83.2004C224.754 83.2683 224.778 83.3363 224.802 83.4043C224.827 83.4723 224.851 83.5402 224.9 83.6082C224.998 83.7442 225.095 83.8801 225.095 84.0161H225.193C225.193 84.152 225.291 84.288 225.388 84.288V84.4239C225.425 84.4759 225.463 84.508 225.495 84.5354C225.546 84.5797 225.583 84.6118 225.583 84.6959C225.681 84.6959 225.681 84.8318 225.681 84.8318L226.169 85.5116C226.169 85.5116 226.267 85.5116 226.267 85.6475C226.327 85.6475 226.35 85.6994 226.382 85.7712C226.402 85.8156 226.425 85.8675 226.462 85.9194H226.56C226.56 86.0554 226.657 86.1913 226.755 86.1913V86.3273C226.853 86.3273 226.95 86.4632 227.048 86.5991C227.097 86.6671 227.146 86.7012 227.194 86.7351C227.243 86.7691 227.292 86.8031 227.341 86.8711L227.439 87.0071C227.487 87.0071 227.512 87.041 227.536 87.075C227.561 87.109 227.585 87.143 227.634 87.143C227.829 87.4149 228.122 87.6868 228.415 87.9587C228.513 88.0947 228.61 88.2306 228.708 88.2306C229.001 88.4345 229.269 88.6385 229.538 88.8424C229.806 89.0463 230.075 89.2503 230.368 89.4542C230.709 89.6581 231.051 89.8281 231.393 89.998C231.735 90.168 232.076 90.3379 232.418 90.5418C232.516 90.5418 232.638 90.5758 232.76 90.6098C232.882 90.6438 233.004 90.6778 233.102 90.6778C233.248 90.7458 233.37 90.7798 233.492 90.8137C233.614 90.8477 233.736 90.8817 233.883 90.9497C234.038 91.0219 234.221 91.0558 234.417 91.092C234.59 91.124 234.774 91.1578 234.957 91.2216H237.984C238.179 91.1536 238.374 91.1196 238.569 91.0856C238.765 91.0517 238.96 91.0177 239.155 90.9497C239.253 90.8817 239.375 90.8477 239.497 90.8137C239.619 90.7798 239.741 90.7458 239.839 90.6778C239.985 90.6778 240.107 90.6438 240.229 90.6098C240.351 90.5758 240.473 90.5418 240.62 90.5418C240.961 90.3379 241.303 90.168 241.645 89.998C241.987 89.8281 242.328 89.6581 242.67 89.4542C242.914 89.2503 243.183 89.0463 243.451 88.8424C243.72 88.6385 243.988 88.4345 244.232 88.2306C244.33 88.2306 244.428 88.0947 244.525 87.9587L245.404 87.143L245.502 87.0071C245.55 87.0071 245.575 86.9731 245.599 86.9391C245.624 86.9051 245.648 86.8711 245.697 86.8711C245.746 86.8031 245.795 86.7691 245.843 86.7351C245.892 86.7012 245.941 86.6672 245.99 86.5992L246.185 86.3273C246.185 86.1913 246.283 86.1913 246.283 86.1913C246.343 86.1913 246.366 86.1394 246.398 86.0676C246.418 86.0233 246.441 85.9714 246.478 85.9194H246.576C246.576 85.7835 246.673 85.6475 246.771 85.6475V85.5116L272.255 50.0278C271.278 49.7559 270.302 49.62 269.228 49.62L236.519 49.62C236.031 49.62 235.445 49.62 234.957 49.7559C234.747 49.7559 234.538 49.795 234.344 49.8312C234.176 49.8626 234.019 49.8919 233.883 49.8919C233.736 49.9598 233.614 49.9938 233.492 50.0278C233.37 50.0618 233.248 50.0958 233.102 50.1638C233.004 50.2318 232.882 50.2657 232.76 50.2997C232.638 50.3337 232.516 50.3677 232.418 50.4357C231.735 50.7076 231.051 51.1154 230.368 51.5233C229.932 51.7257 229.549 52.0036 229.141 52.3007C229.001 52.4026 228.858 52.5067 228.708 52.6109C228.61 52.7469 228.513 52.8828 228.415 52.8828C227.536 53.6986 226.657 54.6502 225.974 55.7378L225.681 56.1457H225.583C225.583 56.2817 225.486 56.4176 225.388 56.4176V56.5536C225.351 56.6055 225.314 56.6376 225.282 56.665C225.23 56.7094 225.193 56.7415 225.193 56.8255C225.193 56.8255 225.193 56.9614 225.095 56.9614L224.9 57.2333C224.851 57.3013 224.827 57.3693 224.802 57.4373C224.778 57.5052 224.754 57.5732 224.705 57.6412C224.705 57.7092 224.68 57.7432 224.656 57.7772C224.631 57.8111 224.607 57.8451 224.607 57.9131L224.509 58.0491L223.924 59.2726C223.826 59.4086 223.728 59.5445 223.728 59.6805C223.582 60.0204 223.435 60.3943 223.289 60.7682C223.142 61.142 222.996 61.5159 222.85 61.8557C222.703 62.3316 222.581 62.8074 222.459 63.2832C222.337 63.7591 222.215 64.2349 222.068 64.7108C222.068 64.9147 222.044 65.0846 222.02 65.2546C221.995 65.4245 221.971 65.5945 221.971 65.7984C221.922 65.9343 221.898 66.1043 221.873 66.2742C221.849 66.4441 221.824 66.6141 221.776 66.75C221.727 67.022 221.702 67.2939 221.678 67.5658C221.654 67.8377 221.629 68.1096 221.58 68.3815L221.58 72.596Z" fill="white"/>
<path d="M282.249 0H298.331V95.5H293.009L282.249 0Z" fill="white"/>
</svg>
