<svg width="1633" height="689" viewBox="0 0 1633 689" fill="none" xmlns="http://www.w3.org/2000/svg">
<g clip-path="url(#clip0_49_779)">
<path d="M130.35 679.373L827.471 -28.086L446.786 735.169L130.35 679.373Z" fill="#FF0505"/>
<path d="M609.698 779.271L824.312 -24.7047L892.405 829.119L609.698 779.271Z" fill="#FF0505"/>
<path d="M1076.73 838.465L824.312 -24.7051L1393.17 894.262L1076.73 838.465Z" fill="#FF0505"/>
<path d="M893.518 -821.007L823.522 -18.256L1175.07 -771.361L893.518 -821.007Z" fill="#FF0505"/>
<path d="M1353.68 -739.869L823.541 -18.2532L1668.77 -684.31L1353.68 -739.869Z" fill="#FF0505"/>
<path d="M-72.4189 388.457L826.933 -22.9607L-16.8546 73.3358L-72.4189 388.457Z" fill="#FF0505"/>
<path d="M20.0127 -91.1108L822.764 -21.1156L69.6581 -372.664L20.0127 -91.1108Z" fill="#FF0505"/>
<path d="M1660.95 804.5L824.228 -22.1573L1683 348.666L1660.95 804.5Z" fill="#FF0505"/>
<path d="M1664.5 188.405L827.535 -19.1056L1647.57 -87.1127L1664.5 188.405Z" fill="#FF0505"/>
<path d="M1668.24 -265.035L827.549 -19.1912L1722.58 -573.23L1668.24 -265.035Z" fill="#FF0505"/>
</g>
<defs>
<clipPath id="clip0_49_779">
<rect width="1633" height="689" fill="white"/>
</clipPath>
</defs>
</svg>
