<svg width="1633" height="689" viewBox="0 0 1633 689" fill="none" xmlns="http://www.w3.org/2000/svg">
<g clip-path="url(#clip0_50_1245)">
<path d="M130.35 676.373L827.471 -31.086L446.786 732.169L130.35 676.373Z" fill="#FF0505"/>
<path d="M609.698 776.271L824.312 -27.7047L892.405 826.119L609.698 776.271Z" fill="#FF0505"/>
<path d="M1076.73 835.465L824.312 -27.7051L1393.17 891.262L1076.73 835.465Z" fill="#FF0505"/>
<path d="M893.518 -824.007L823.522 -21.256L1175.07 -774.361L893.518 -824.007Z" fill="#FF0505"/>
<path d="M1353.68 -742.868L823.541 -21.2527L1668.77 -687.31L1353.68 -742.868Z" fill="#FF0505"/>
<path d="M-72.4189 385.457L826.933 -25.9607L-16.8546 70.3358L-72.4189 385.457Z" fill="#FF0505"/>
<path d="M20.0127 -94.1113L822.764 -24.1161L69.6581 -375.665L20.0127 -94.1113Z" fill="#FF0505"/>
<path d="M1660.95 801.5L824.228 -25.1573L1683 345.666L1660.95 801.5Z" fill="#FF0505"/>
<path d="M1664.5 185.404L827.535 -22.1061L1647.57 -90.1131L1664.5 185.404Z" fill="#FF0505"/>
<path d="M1668.24 -268.035L827.549 -22.1917L1722.58 -576.23L1668.24 -268.035Z" fill="#FF0505"/>
</g>
<defs>
<clipPath id="clip0_50_1245">
<rect width="1633" height="689" fill="white"/>
</clipPath>
</defs>
</svg>
