<svg width="1633" height="689" viewBox="0 0 1633 689" fill="none" xmlns="http://www.w3.org/2000/svg">
<g clip-path="url(#clip0_49_684)">
<path d="M-126.501 -262.218L834.737 -12.2223L-16.6036 39.7229L-126.501 -262.218Z" fill="#FF0505"/>
<path d="M-93.6827 202.859L830.231 -13.2678L-38.4998 540.5L-93.6827 202.859Z" fill="#FF0505"/>
<path d="M115.999 729.83L830.23 -13.2675L318.809 938.858L115.999 729.83Z" fill="#FF0505"/>
<path d="M1554.45 -351.485L824.251 -10.7271L1652.23 -82.8299L1554.45 -351.485Z" fill="#FF0505"/>
<path d="M1714.26 87.5929L824.258 -10.71L1823.69 388.248L1714.26 87.5929Z" fill="#FF0505"/>
<path d="M24.0566 -583.278L830.031 -10.1254L324.742 -692.719L24.0566 -583.278Z" fill="#FF0505"/>
<path d="M485.591 -743.014L826.349 -12.8136L754.246 -840.796L485.591 -743.014Z" fill="#FF0505"/>
<path d="M584.463 924.272L827.983 -12.0655L878.582 817.222L584.463 924.272Z" fill="#FF0505"/>
<path d="M1033.01 764.179L826.994 -7.67697L1325 697.585L1033.01 764.179Z" fill="#FF0505"/>
<path d="M1611.5 748.603L827.075 -7.70673L1754.4 490.393L1611.5 748.603Z" fill="#FF0505"/>
</g>
<defs>
<clipPath id="clip0_49_684">
<rect width="1633" height="689" fill="white"/>
</clipPath>
</defs>
</svg>
