<svg width="1633" height="689" viewBox="0 0 1633 689" fill="none" xmlns="http://www.w3.org/2000/svg">
<g clip-path="url(#clip0_50_1203)">
<path d="M-124.091 234.489L833.363 -29.6274L-15.5 578.582L-124.091 234.489Z" fill="#FF0505"/>
<path d="M129.5 672.266L828.937 -28.2791L460.996 745.201L129.5 672.266Z" fill="#FF0505"/>
<path d="M615.952 845.457L828.938 -28.279L862.096 1052L615.952 845.457Z" fill="#FF0505"/>
<path d="M1287.02 -683.294L825.028 -23.0889L1506.03 -499.523L1287.02 -683.294Z" fill="#FF0505"/>
<path d="M1644.96 -382.947L825.044 -23.0769L1890.06 -177.287L1644.96 -382.947Z" fill="#FF0505"/>
<path d="M-154.235 -118.835L830.335 -25.4572L51.4454 -363.956L-154.235 -118.835Z" fill="#FF0505"/>
<path d="M165.597 -487.938L825.802 -25.9444L349.368 -706.947L165.597 -487.938Z" fill="#FF0505"/>
<path d="M1084.87 906.538L827.591 -26.1142L1286.05 666.77L1084.87 906.538Z" fill="#FF0505"/>
<path d="M1635 785.344L828.929 -21.8183L1697.3 453.5L1635 785.344Z" fill="#FF0505"/>
<path d="M1679.96 185.552L828.985 -21.8849L1881.12 -54.1815L1679.96 185.552Z" fill="#FF0505"/>
</g>
<defs>
<clipPath id="clip0_50_1203">
<rect width="1633" height="689" fill="white"/>
</clipPath>
</defs>
</svg>
