<svg width="1633" height="689" viewBox="0 0 1633 689" fill="none" xmlns="http://www.w3.org/2000/svg">
<g clip-path="url(#clip0_50_1161)">
<path d="M-126.501 -277.218L834.737 -27.2225L-16.6036 24.7227L-126.501 -277.218Z" fill="#FF0505"/>
<path d="M-93.6827 187.859L830.231 -28.2676L-38.4998 525.5L-93.6827 187.859Z" fill="#FF0505"/>
<path d="M115.999 714.83L830.23 -28.2673L318.809 923.858L115.999 714.83Z" fill="#FF0505"/>
<path d="M1554.45 -366.485L824.251 -25.7276L1652.23 -97.8304L1554.45 -366.485Z" fill="#FF0505"/>
<path d="M1714.26 72.5929L824.258 -25.71L1823.69 373.248L1714.26 72.5929Z" fill="#FF0505"/>
<path d="M24.0566 -598.278L830.031 -25.1256L324.742 -707.719L24.0566 -598.278Z" fill="#FF0505"/>
<path d="M584.463 909.272L827.983 -27.0652L878.582 802.222L584.463 909.272Z" fill="#FF0505"/>
<path d="M1033.01 749.179L826.994 -22.6772L1325 682.585L1033.01 749.179Z" fill="#FF0505"/>
<path d="M1611.5 733.603L827.075 -22.7067L1754.4 475.393L1611.5 733.603Z" fill="#FF0505"/>
</g>
<defs>
<clipPath id="clip0_50_1161">
<rect width="1633" height="689" fill="white"/>
</clipPath>
</defs>
</svg>
