<svg width="1633" height="689" viewBox="0 0 1633 689" fill="none" xmlns="http://www.w3.org/2000/svg">
<g clip-path="url(#clip0_49_741)">
<path d="M-65.1997 402.919L831.846 -23.4456L-96.4997 873.148L-65.1997 402.919Z" fill="#FF0505"/>
<path d="M330 681.813L827.721 -21.3492L599.683 804.273L330 681.813Z" fill="#FF0505"/>
<path d="M769.694 876.098L827.721 -21.349L1047.96 1036.76L769.694 876.098Z" fill="#FF0505"/>
<path d="M1165.1 -745.958L824.772 -15.5592L1412.7 -603.01L1165.1 -745.958Z" fill="#FF0505"/>
<path d="M1569.76 -512.33L824.79 -15.5502L1846.85 -352.355L1569.76 -512.33Z" fill="#FF0505"/>
<path d="M-156.24 60.1963L829.587 -18.8134L3.751 -216.917L-156.24 60.1963Z" fill="#FF0505"/>
<path d="M94.6396 -358.837L825.039 -18.5059L237.588 -606.431L94.6396 -358.837Z" fill="#FF0505"/>
<path d="M1242.09 854.825L826.772 -18.9827L1570 755.176L1242.09 854.825Z" fill="#FF0505"/>
<path d="M1661.93 623L828.835 -14.9853L1622.68 201.578L1661.93 623Z" fill="#FF0505"/>
<path d="M1702.95 41.4534L828.878 -15.061L1859.42 -229.569L1702.95 41.4534Z" fill="#FF0505"/>
</g>
<defs>
<clipPath id="clip0_49_741">
<rect width="1633" height="689" fill="white"/>
</clipPath>
</defs>
</svg>
