<svg width="1633" height="689" viewBox="0 0 1633 689" fill="none" xmlns="http://www.w3.org/2000/svg">
<g clip-path="url(#clip0_49_722)">
<path d="M-124.091 241.489L833.363 -22.6274L-15.5 585.582L-124.091 241.489Z" fill="#FF0505"/>
<path d="M129.5 679.266L828.937 -21.2791L460.996 752.201L129.5 679.266Z" fill="#FF0505"/>
<path d="M615.952 852.457L828.938 -21.2795L862.096 1059L615.952 852.457Z" fill="#FF0505"/>
<path d="M1287.02 -676.294L825.028 -16.0894L1506.03 -492.524L1287.02 -676.294Z" fill="#FF0505"/>
<path d="M1644.96 -375.948L825.044 -16.0778L1890.06 -170.288L1644.96 -375.948Z" fill="#FF0505"/>
<path d="M-154.235 -111.836L830.335 -18.4582L51.4454 -356.957L-154.235 -111.836Z" fill="#FF0505"/>
<path d="M165.597 -480.938L825.802 -18.9449L349.368 -699.948L165.597 -480.938Z" fill="#FF0505"/>
<path d="M1084.87 913.538L827.591 -19.1142L1286.05 673.77L1084.87 913.538Z" fill="#FF0505"/>
<path d="M1635 792.344L828.929 -14.8183L1697.3 460.5L1635 792.344Z" fill="#FF0505"/>
<path d="M1679.96 192.551L828.985 -14.8854L1881.12 -47.182L1679.96 192.551Z" fill="#FF0505"/>
</g>
<defs>
<clipPath id="clip0_49_722">
<rect width="1633" height="689" fill="white"/>
</clipPath>
</defs>
</svg>
