<svg width="1633" height="689" viewBox="0 0 1633 689" fill="none" xmlns="http://www.w3.org/2000/svg">
<g clip-path="url(#clip0_50_1147)">
<path d="M-69.1348 -436.203L834.089 -23.0886L-13.3384 -119.766L-69.1348 -436.203Z" fill="#FF0505"/>
<path d="M0.940231 48.4039L829.832 -24.9007L0.939451 331.111L0.940231 48.4039Z" fill="#FF0505"/>
<path d="M-33.0001 507.516L829.832 -24.9004L24.7986 960L-33.0001 507.516Z" fill="#FF0505"/>
<path d="M1601.78 -232.219L823.498 -23.4358L1651.42 49.3345L1601.78 -232.219Z" fill="#FF0505"/>
<path d="M1682.92 227.939L823.503 -23.4185L1738.48 543.028L1682.92 227.939Z" fill="#FF0505"/>
<path d="M134.887 -726.242L829.089 -21.8411L450.008 -781.807L134.887 -726.242Z" fill="#FF0505"/>
<path d="M424.995 855.719L827.409 -24.1071L733.235 801.368L424.995 855.719Z" fill="#FF0505"/>
<path d="M894.529 775.947L825.672 -19.9571L1170.05 727.366L894.529 775.947Z" fill="#FF0505"/>
<path d="M1344.31 685.931L825.757 -19.9721L1652.5 662L1344.31 685.931Z" fill="#FF0505"/>
</g>
<defs>
<clipPath id="clip0_50_1147">
<rect width="1633" height="689" fill="white"/>
</clipPath>
</defs>
</svg>
