<svg width="1633" height="689" viewBox="0 0 1633 689" fill="none" xmlns="http://www.w3.org/2000/svg">
<g clip-path="url(#clip0_50_1217)">
<path d="M-65.1997 401.919L831.846 -24.4461L-96.4997 872.147L-65.1997 401.919Z" fill="#FF0505"/>
<path d="M330 680.812L827.721 -22.3502L599.683 803.272L330 680.812Z" fill="#FF0505"/>
<path d="M769.694 875.097L827.721 -22.35L1047.96 1035.76L769.694 875.097Z" fill="#FF0505"/>
<path d="M1165.1 -746.959L824.772 -16.5597L1412.7 -604.011L1165.1 -746.959Z" fill="#FF0505"/>
<path d="M1569.76 -513.331L824.79 -16.5507L1846.85 -353.355L1569.76 -513.331Z" fill="#FF0505"/>
<path d="M-156.24 59.1963L829.587 -19.8134L3.751 -217.917L-156.24 59.1963Z" fill="#FF0505"/>
<path d="M94.6396 -359.837L825.039 -19.5059L237.588 -607.431L94.6396 -359.837Z" fill="#FF0505"/>
<path d="M1242.09 853.824L826.772 -19.9837L1570 754.175L1242.09 853.824Z" fill="#FF0505"/>
<path d="M1661.93 621.999L828.835 -15.9863L1622.68 200.577L1661.93 621.999Z" fill="#FF0505"/>
<path d="M1702.95 40.4529L828.878 -16.0615L1859.42 -230.569L1702.95 40.4529Z" fill="#FF0505"/>
</g>
<defs>
<clipPath id="clip0_50_1217">
<rect width="1633" height="689" fill="white"/>
</clipPath>
</defs>
</svg>
