<svg width="1633" height="689" viewBox="0 0 1633 689" fill="none" xmlns="http://www.w3.org/2000/svg">
<g clip-path="url(#clip0_49_703)">
<path d="M-155.214 -96.7019L834.832 -17.4219L5.44528 181.568L-155.214 -96.7019Z" fill="#FF0505"/>
<path d="M-25.4996 356L830.212 -17.6688L-25.5 759L-25.4996 356Z" fill="#FF0505"/>
<path d="M331.236 730.53L830.212 -17.6684L491.896 1008.8L331.236 730.53Z" fill="#FF0505"/>
<path d="M1484.7 -476.507L824.762 -14.1278L1627.65 -228.913L1484.7 -476.507Z" fill="#FF0505"/>
<path d="M1718.33 -71.8502L824.772 -14.1119L1878.3 205.235L1718.33 -71.8502Z" fill="#FF0505"/>
<path d="M-62.6963 -439.029L830.56 -14.5393L214.417 -599.02L-62.6963 -439.029Z" fill="#FF0505"/>
<path d="M364.088 -676.482L826.467 -16.5468L611.682 -819.43L364.088 -676.482Z" fill="#FF0505"/>
<path d="M750.98 948.305L828.207 -16.0942L1022.04 791.808L750.98 948.305Z" fill="#FF0505"/>
<path d="M1164.91 712.754L827.994 -11.6005L1529 694.671L1164.91 712.754Z" fill="#FF0505"/>
<path d="M1650.95 568.5L828.069 -11.6442L1827.8 317.859L1650.95 568.5Z" fill="#FF0505"/>
</g>
<defs>
<clipPath id="clip0_49_703">
<rect width="1633" height="689" fill="white"/>
</clipPath>
</defs>
</svg>
