<svg width="1633" height="689" viewBox="0 0 1633 689" fill="none" xmlns="http://www.w3.org/2000/svg">
<g clip-path="url(#clip0_46_646)">
<path d="M813.723 -1.31445L937.076 1144.87L1298.18 1144.87L813.723 -1.31445Z" fill="#F40000"/>
<path d="M813.723 -1.31445L1444.07 1153H1892.94L813.723 -1.31445Z" fill="#F40000"/>
<path d="M813.723 -1.31445L1894.43 909.129V480.44L813.723 -1.31445Z" fill="#F40000"/>
<path d="M813.723 -1.31445L1897.41 346.605V-1.31445L813.723 -1.31445Z" fill="#F40000"/>
<path d="M816.703 -1.31445L693.73 1139.99L333.741 1139.99L816.703 -1.31445Z" fill="#F40000"/>
<path d="M816.703 -1.31445L188.102 1148.12H-259.528L816.703 -1.31445Z" fill="#F40000"/>
<path d="M816.703 -1.31445L-261.019 904.252V477.86L816.703 -1.31445Z" fill="#F40000"/>
<path d="M816.703 -1.31445L-264 344.979V-1.31445L816.703 -1.31445Z" fill="#F40000"/>
</g>
<defs>
<clipPath id="clip0_46_646">
<rect width="1633" height="689" fill="white"/>
</clipPath>
</defs>
</svg>
