<svg width="1633" height="689" viewBox="0 0 1633 689" fill="none" xmlns="http://www.w3.org/2000/svg">
<g clip-path="url(#clip0_49_760)">
<path d="M20.481 542.7L829.86 -32.9576L-13.8774 988.897L20.481 542.7Z" fill="#FF0505"/>
<path d="M475.2 724.317L826.162 -30.1768L744.956 822.5L475.2 724.317Z" fill="#FF0505"/>
<path d="M924.858 863.712L826.163 -30.1769L1226.8 973.609L924.858 863.712Z" fill="#FF0505"/>
<path d="M1032.59 -802.365L824.266 -23.964L1301.25 -704.582L1032.59 -802.365Z" fill="#FF0505"/>
<path d="M1471.67 -642.554L824.283 -23.9578L1772.33 -533.124L1471.67 -642.554Z" fill="#FF0505"/>
<path d="M-128.689 220.993L828.441 -28.0039L-19.249 -79.6925L-128.689 220.993Z" fill="#FF0505"/>
<path d="M45.6143 -235.239L824.015 -26.9111L143.397 -503.894L45.6143 -235.239Z" fill="#FF0505"/>
<path d="M1386.38 760.731L825.639 -27.6824L1700.32 673.5L1386.38 760.731Z" fill="#FF0505"/>
<path d="M1647.75 409.903L828.363 -24.1038L1647.75 51.3199L1647.75 409.903Z" fill="#FF0505"/>
<path d="M1699 -120.31L828.394 -24.1852L1806.03 -414.386L1699 -120.31Z" fill="#FF0505"/>
</g>
<defs>
<clipPath id="clip0_49_760">
<rect width="1633" height="689" fill="white"/>
</clipPath>
</defs>
</svg>
