<svg width="1633" height="689" viewBox="0 0 1633 689" fill="none" xmlns="http://www.w3.org/2000/svg">
<g clip-path="url(#clip0_49_665)">
<path d="M-68.8887 -434.659L834.335 -21.5442L-13.0923 -118.222L-68.8887 -434.659Z" fill="#FF0505"/>
<path d="M1.18632 49.9484L830.078 -23.3563L1.18554 332.656L1.18632 49.9484Z" fill="#FF0505"/>
<path d="M-32.754 509.061L830.078 -23.3562L25.0447 961.544L-32.754 509.061Z" fill="#FF0505"/>
<path d="M1602.02 -230.675L823.745 -21.8921L1651.67 50.8782L1602.02 -230.675Z" fill="#FF0505"/>
<path d="M1683.16 229.483L823.749 -21.874L1738.72 544.573L1683.16 229.483Z" fill="#FF0505"/>
<path d="M135.133 -724.698L829.335 -20.2965L450.254 -780.262L135.133 -724.698Z" fill="#FF0505"/>
<path d="M425.241 857.263L827.655 -22.5629L733.481 802.912L425.241 857.263Z" fill="#FF0505"/>
<path d="M894.775 777.492L825.918 -18.4127L1170.29 728.911L894.775 777.492Z" fill="#FF0505"/>
<path d="M1344.55 687.476L826.003 -18.4279L1652.75 663.544L1344.55 687.476Z" fill="#FF0505"/>
</g>
<defs>
<clipPath id="clip0_49_665">
<rect width="1633" height="689" fill="white"/>
</clipPath>
</defs>
</svg>
