<svg width="1633" height="689" viewBox="0 0 1633 689" fill="none" xmlns="http://www.w3.org/2000/svg">
<g clip-path="url(#clip0_50_1189)">
<path d="M-154.406 70.2568L834.366 -23.5872L-16 384.534L-154.406 70.2568Z" fill="#FF0505"/>
<path d="M-48.1055 651.593L829.773 -23.0276L136.419 871.5L-48.1055 651.593Z" fill="#FF0505"/>
<path d="M468.301 800.45L829.773 -23.0273L674.84 1046.59L468.301 800.45Z" fill="#FF0505"/>
<path d="M1394.64 -588.549L825.027 -18.5981L1578.42 -369.539L1394.64 -588.549Z" fill="#FF0505"/>
<path d="M1694.99 -230.609L825.038 -18.5837L1900.65 14.4872L1694.99 -230.609Z" fill="#FF0505"/>
<path d="M-122.737 -282.935L830.66 -20.0066L122.384 -488.615L-122.737 -282.935Z" fill="#FF0505"/>
<path d="M256.33 -590.892L826.281 -21.2738L475.34 -774.662L256.33 -590.892Z" fill="#FF0505"/>
<path d="M919.484 942.029L828.072 -21.129L1159.25 740.84L919.484 942.029Z" fill="#FF0505"/>
<path d="M1480 802.002L828.643 -16.6667L1694.31 622.171L1480 802.002Z" fill="#FF0505"/>
<path d="M1630.74 335.333L828.711 -16.7228L1870.47 134.173L1630.74 335.333Z" fill="#FF0505"/>
</g>
<defs>
<clipPath id="clip0_50_1189">
<rect width="1633" height="689" fill="white"/>
</clipPath>
</defs>
</svg>
