<svg width="1633" height="689" viewBox="0 0 1633 689" fill="none" xmlns="http://www.w3.org/2000/svg">
<g clip-path="url(#clip0_50_1119)">
<path d="M-154.406 70.2578L834.366 -23.5862L-16 384.535L-154.406 70.2578Z" fill="#FF0505"/>
<path d="M-48.1055 651.593L829.773 -23.0272L136.419 871.5L-48.1055 651.593Z" fill="#FF0505"/>
<path d="M468.301 800.451L829.773 -23.0268L674.84 1046.6L468.301 800.451Z" fill="#FF0505"/>
<path d="M1394.64 -588.548L825.027 -18.5974L1578.42 -369.539L1394.64 -588.548Z" fill="#FF0505"/>
<path d="M1694.99 -230.608L825.038 -18.5833L1900.65 14.4877L1694.99 -230.608Z" fill="#FF0505"/>
<path d="M-122.737 -282.934L830.66 -20.0061L122.384 -488.615L-122.737 -282.934Z" fill="#FF0505"/>
<path d="M256.33 -590.891L826.281 -21.2728L475.34 -774.661L256.33 -590.891Z" fill="#FF0505"/>
<path d="M919.484 942.03L828.072 -21.1285L1159.25 740.84L919.484 942.03Z" fill="#FF0505"/>
<path d="M1480 802.002L828.643 -16.6667L1694.31 622.171L1480 802.002Z" fill="#FF0505"/>
<path d="M1630.74 335.333L828.711 -16.7228L1870.47 134.173L1630.74 335.333Z" fill="#FF0505"/>
</g>
<defs>
<clipPath id="clip0_50_1119">
<rect width="1633" height="689" fill="white"/>
</clipPath>
</defs>
</svg>
