<svg width="1633" height="689" viewBox="0 0 1633 689" fill="none" xmlns="http://www.w3.org/2000/svg">
<g clip-path="url(#clip0_50_1231)">
<path d="M20.481 549.7L829.86 -25.9571L-13.8774 995.898L20.481 549.7Z" fill="#FF0505"/>
<path d="M475.2 731.317L826.162 -23.1763L744.956 829.501L475.2 731.317Z" fill="#FF0505"/>
<path d="M924.858 870.713L826.163 -23.1759L1226.8 980.61L924.858 870.713Z" fill="#FF0505"/>
<path d="M1032.59 -795.364L824.266 -16.9635L1301.25 -697.582L1032.59 -795.364Z" fill="#FF0505"/>
<path d="M1471.67 -635.553L824.283 -16.9573L1772.33 -526.124L1471.67 -635.553Z" fill="#FF0505"/>
<path d="M-128.689 227.993L828.441 -21.0034L-19.249 -72.692L-128.689 227.993Z" fill="#FF0505"/>
<path d="M45.6143 -228.239L824.015 -19.9111L143.397 -496.894L45.6143 -228.239Z" fill="#FF0505"/>
<path d="M1386.38 767.732L825.639 -20.6814L1700.32 680.501L1386.38 767.732Z" fill="#FF0505"/>
<path d="M1647.75 416.903L828.363 -17.1033L1647.75 58.3204L1647.75 416.903Z" fill="#FF0505"/>
<path d="M1699 -113.31L828.394 -17.1847L1806.03 -407.386L1699 -113.31Z" fill="#FF0505"/>
</g>
<defs>
<clipPath id="clip0_50_1231">
<rect width="1633" height="689" fill="white"/>
</clipPath>
</defs>
</svg>
